<svg
      xmlns="http://www.w3.org/2000/svg"
      viewBox="0 0 540 920"
      width="540"
      height="920"
      preserveAspectRatio="xMidYMid meet"
      style="width: 100%; height: 100%; transform: translate3d(0px, 0px, 0px)"
    >
      <defs>
        <clipPath id="__lottie_element_253">
          <rect width="540" height="920" x="0" y="0"></rect>
        </clipPath>
        <filter
          id="__lottie_element_258"
          filterUnits="objectBoundingBox"
          x="0%"
          y="0%"
          width="100%"
          height="100%"
        >
          <feComponentTransfer in="SourceGraphic">
            <feFuncA type="table" tableValues="1.0 0.0"></feFuncA>
          </feComponentTransfer>
        </filter>
        <mask id="__lottie_element_254" mask-type="alpha">
          <g filter="url(#__lottie_element_258)">
            <rect
              width="540"
              height="920"
              x="0"
              y="0"
              fill="#ffffff"
              opacity="0"
            ></rect>
            <g
              transform="matrix(1,0,0,1,95.99700927734375,190.0407257080078)"
              opacity="1"
              style="display: block"
            >
              <g
                opacity="1"
                transform="matrix(1,0,0,1,173.8699951171875,173.86900329589844)"
              >
                <path
                  fill="rgb(104,61,57)"
                  fill-opacity="1"
                  d=" M173.6199951171875,0 C173.6199951171875,95.88700103759766 95.88800048828125,173.61900329589844 0,173.61900329589844 C-95.88700103759766,173.61900329589844 -173.6199951171875,95.88700103759766 -173.6199951171875,0 C-173.6199951171875,-95.88700103759766 -95.88700103759766,-173.61900329589844 0,-173.61900329589844 C95.88800048828125,-173.61900329589844 173.6199951171875,-95.88700103759766 173.6199951171875,0z"
                ></path>
              </g>
            </g>
          </g>
        </mask>
        <mask id="__lottie_element_266" mask-type="alpha">
          <g
            style="display: none"
            transform="matrix(1,-0.00003066698627662845,0.00003066698627662845,1,213.85523986816406,388.78436279296875)"
            opacity="1"
          >
            <g
              opacity="1"
              transform="matrix(1,0,0,1,55.83700180053711,27.209999084472656)"
            >
              <path
                fill="rgb(170,70,130)"
                fill-opacity="1"
                d=" M0.057999998331069946,-23.582012176513672 C-14.939000129699707,-23.582012176513672 -29.402999877929688,-24.471324920654297 -43.01499938964844,-26.121479034423828 C-49.93299865722656,-26.959999084472656 -55.58700180053711,-21.00370216369629 -53.44900131225586,-12.487030029296875 C-48.03799819946289,9.065573692321777 -22.768999099731445,26.737274169921875 0.057999998331069946,26.737274169921875 C22.886999130249023,26.737274169921875 45.43000030517578,10.606182098388672 52.736000061035156,-12.132499694824219 C55.58700180053711,-21.00370216369629 50.05099868774414,-26.959999084472656 43.132999420166016,-26.121479034423828 C29.520000457763672,-24.471324920654297 15.055999755859375,-23.582012176513672 0.057999998331069946,-23.582012176513672z"
              ></path>
            </g>
          </g>
        </mask>
        <mask id="__lottie_element_278" mask-type="alpha">
          <g
            transform="matrix(1,0,0,1,213.8209991455078,371.083251953125)"
            opacity="1"
            style="display: block"
          >
            <g
              opacity="1"
              transform="matrix(1,0,0,1,55.83700180053711,27.209999084472656)"
            >
              <path
                fill="rgb(170,70,130)"
                fill-opacity="1"
                d=" M0.057999998331069946,-23.56800079345703 C-14.939000129699707,-23.56800079345703 -29.402999877929688,-24.461000442504883 -43.01499938964844,-26.118000030517578 C-49.93299865722656,-26.959999084472656 -55.58700180053711,-20.979000091552734 -53.44900131225586,-12.427000045776367 C-48.03799819946289,9.21500015258789 -22.768999099731445,26.959999084472656 0.057999998331069946,26.959999084472656 C22.886999130249023,26.959999084472656 45.43000030517578,10.76200008392334 52.736000061035156,-12.071000099182129 C55.58700180053711,-20.979000091552734 50.05099868774414,-26.959999084472656 43.132999420166016,-26.118000030517578 C29.520000457763672,-24.461000442504883 15.055999755859375,-23.56800079345703 0.057999998331069946,-23.56800079345703z"
              ></path>
            </g>
          </g>
        </mask>
        <mask id="__lottie_element_293" mask-type="alpha">
          <g
            transform="matrix(1,0,0,1,347.0610046386719,442.34124755859375)"
            opacity="1"
            style="display: block"
          >
            <g
              opacity="1"
              transform="matrix(1,0,0,1,42.130001068115234,56.45600128173828)"
            >
              <path
                fill="rgb(214,139,230)"
                fill-opacity="1"
                d=" M26.64299964904785,55.3489990234375 C30.63599967956543,56.09299850463867 35.349998474121094,56.207000732421875 38.097999572753906,53.21500015258789 C41.88100051879883,49.09700012207031 39.28900146484375,42.55099868774414 36.680999755859375,37.604000091552734 C23.05900001525879,11.763999938964844 13.39799976348877,-16.125999450683594 2.815999984741211,-43.28900146484375 C1.3279999494552612,-47.10900115966797 -0.37400001287460327,-51.19300079345703 -3.865999937057495,-53.340999603271484 C-8.52400016784668,-56.20600128173828 -14.897000312805176,-54.45000076293945 -18.91699981689453,-50.74300003051758 C-22.934999465942383,-47.0359992980957 -25.145999908447266,-41.82099914550781 -27.243000030517578,-36.770999908447266 C-34.75400161743164,-18.683000564575195 -49.215999603271484,2.000999927520752 -35.67900085449219,18.496000289916992 C-23.152000427246094,33.762001037597656 7.091000080108643,51.70600128173828 26.64299964904785,55.3489990234375z"
              ></path>
            </g>
          </g>
        </mask>
        <mask id="__lottie_element_302" mask-type="alpha">
          <g
            transform="matrix(1,0,0,1,108.41000366210938,442.34124755859375)"
            opacity="1"
            style="display: block"
          >
            <g
              opacity="1"
              transform="matrix(1,0,0,1,42.130001068115234,56.45600128173828)"
            >
              <path
                fill="rgb(214,139,230)"
                fill-opacity="1"
                d=" M-26.64299964904785,55.3489990234375 C-30.63599967956543,56.09299850463867 -35.349998474121094,56.207000732421875 -38.097999572753906,53.21500015258789 C-41.88100051879883,49.09700012207031 -39.28799819946289,42.55099868774414 -36.68000030517578,37.604000091552734 C-23.05900001525879,11.763999938964844 -13.39799976348877,-16.125999450683594 -2.815999984741211,-43.28900146484375 C-1.3279999494552612,-47.10900115966797 0.375,-51.19300079345703 3.867000102996826,-53.340999603271484 C8.524999618530273,-56.20600128173828 14.897000312805176,-54.45000076293945 18.91699981689453,-50.74300003051758 C22.934999465942383,-47.0359992980957 25.145999908447266,-41.82099914550781 27.242000579833984,-36.770999908447266 C34.75400161743164,-18.683000564575195 41.88100051879883,4.513999938964844 28.3439998626709,21.009000778198242 C15.815999984741211,36.275001525878906 -7.091000080108643,51.70600128173828 -26.64299964904785,55.3489990234375z"
              ></path>
            </g>
          </g>
        </mask>
        <mask id="__lottie_element_332" mask-type="alpha">
          <g
            style="display: none"
            transform="matrix(0.9997527599334717,-0.022236475721001625,0.022236475721001625,0.9997527599334717,230.46690368652344,345.55517578125)"
            opacity="1"
          >
            <g
              opacity="1"
              transform="matrix(1,0,0,1,53.80699920654297,23.018999099731445)"
            >
              <path
                fill="rgb(159,44,49)"
                fill-opacity="1"
                d=" M0.7489712834358215,17.985931396484375 C-22.26502799987793,18.114931106567383 -40.56222915649414,6.1035380363464355 -50.095767974853516,-18.049367904663086 C-51.342342376708984,-21.177305221557617 -53.55799865722656,-19.367000579833984 -52.560001373291016,-16.134000778198242 C-45.64699935913086,6.26200008392334 -24.83799934387207,22.57699966430664 -0.16300000250339508,22.672000885009766 C24.513999938964844,22.76799964904785 45.45000076293945,6.61299991607666 52.53499984741211,-15.727999687194824 C53.55799865722656,-18.95400047302246 50.70060348510742,-20.035383224487305 49.37483215332031,-16.940433502197266 C40.98372268676758,2.7674195766448975 23.752971649169922,17.856929779052734 0.7489712834358215,17.985931396484375z"
              ></path>
            </g>
          </g>
        </mask>
        <mask id="__lottie_element_344" mask-type="alpha">
          <g
            style="display: none"
            transform="matrix(1,0,0,1,217.6020050048828,333.6828308105469)"
            opacity="1"
          >
            <g
              opacity="1"
              transform="matrix(1,0,0,1,53.80699920654297,23.018999099731445)"
            >
              <path
                fill="rgb(159,44,49)"
                fill-opacity="1"
                d=" M0.7499449849128723,17.95807647705078 C-22.264055252075195,18.08707618713379 -40.55481719970703,6.083010673522949 -50.09364700317383,-18.052698135375977 C-51.3419189453125,-21.178604125976562 -53.55799865722656,-19.367000579833984 -52.560001373291016,-16.134000778198242 C-45.64699935913086,6.26200008392334 -24.83799934387207,22.57699966430664 -0.16300000250339508,22.672000885009766 C24.513999938964844,22.76799964904785 45.45000076293945,6.61299991607666 52.53499984741211,-15.727999687194824 C53.55799865722656,-18.95400047302246 50.700721740722656,-20.037288665771484 49.37331771850586,-16.94437026977539 C40.97582244873047,2.7498106956481934 23.753944396972656,17.829076766967773 0.7499449849128723,17.95807647705078z"
              ></path>
            </g>
          </g>
        </mask>
      </defs>
      <g clip-path="url(#__lottie_element_253)">
        <g
          transform="matrix(1,0,0,1,112.87300109863281,425.9912414550781)"
          opacity="1"
          style="display: block"
        >
          <g
            opacity="1"
            transform="matrix(1,0,0,1,34.70899963378906,60.202999114990234)"
          >
            <path
              fill="rgb(255,255,255)"
              fill-opacity="1"
              d=" M-1.9600000381469727,-53.69599914550781 C3.9030001163482666,-57.83399963378906 11.618000030517578,-59.95199966430664 15.692000389099121,-58.3129997253418 C21.56100082397461,-55.95199966430664 34.45899963378906,-45.619998931884766 29.351999282836914,-30.812999725341797 C24.791000366210938,-17.59000015258789 17.339000701904297,-11.505999565124512 11.890999794006348,6.803999900817871 C8.010000228881836,19.8439998626709 7.214000225067139,32.34299850463867 1.6950000524520874,41.98099899291992 C-10.99899959564209,59.952999114990234 -34.45899963378906,44.94900131225586 -32.85900115966797,23.179000854492188 C-33.21500015258789,-13.854999542236328 -14.08899974822998,-45.1349983215332 -1.9600000381469727,-53.69599914550781z"
            ></path>
          </g>
        </g>
        <g
          transform="matrix(1,0,0,1,357.4419860839844,425.9912414550781)"
          opacity="1"
          style="display: block"
        >
          <g
            opacity="1"
            transform="matrix(1,0,0,1,34.08700180053711,56.630001068115234)"
          >
            <path
              fill="rgb(255,255,255)"
              fill-opacity="1"
              d=" M2.5820000171661377,-50.12300109863281 C-3.2799999713897705,-54.26100158691406 -10.994999885559082,-56.380001068115234 -15.069000244140625,-54.74100112915039 C-20.93899917602539,-52.380001068115234 -33.83700180053711,-42.04800033569336 -28.729999542236328,-27.240999221801758 C-24.167999267578125,-14.017999649047852 -16.718000411987305,-7.934000015258789 -11.270000457763672,10.37600040435791 C-7.388999938964844,23.416000366210938 -6.5929999351501465,35.915000915527344 -1.0729999542236328,45.553001403808594 C3.568000078201294,53.65599822998047 15.48799991607666,56.380001068115234 24.711999893188477,49.27299880981445 C30.319000244140625,44.952999114990234 33.393001556396484,36.16699981689453 33.481998443603516,26.75200080871582 C33.8380012512207,-10.281999588012695 14.711999893188477,-41.5620002746582 2.5820000171661377,-50.12300109863281z"
            ></path>
          </g>
        </g>
        <g
          transform="matrix(1,0,0,1,140.63999938964844,246.61322021484375)"
          opacity="1"
          style="display: block"
        >
          <g
            opacity="1"
            transform="matrix(1,0,0,1,128.14100646972656,163.21299743652344)"
          >
            <path
              fill="rgb(255,255,255)"
              fill-opacity="1"
              d=" M-103.74400329589844,-165.90699768066406 C-88.1259994506836,-168.8000030517578 -76.81800079345703,-158.78799438476562 -74.52200317382812,-142.9499969482422 C-53.845001220703125,-149.47000122070312 -23.97800064086914,-150.71600341796875 -1.1430000066757202,-150.8419952392578 C24.097999572753906,-150.9810028076172 56.57899856567383,-147.51699829101562 75.09100341796875,-141.07400512695312 C76.6520004272461,-154.39300537109375 83.50599670410156,-167.96299743652344 102.90399932861328,-165.88800048828125 C130.89100646972656,-162.89500427246094 127.88700103759766,-133.531005859375 128,-120.41500091552734 C128.35000610351562,-80.00599670410156 122.7969970703125,-19.697999954223633 121.18900299072266,6.0960001945495605 C117.22799682617188,69.62000274658203 114.07099914550781,95.86399841308594 107.99299621582031,140.73800659179688 C105.26100158691406,160.90899658203125 46.525001525878906,162.0189971923828 2.111999988555908,162.4709930419922 C-46.172000885009766,162.96299743652344 -104.27100372314453,151.781005859375 -106.39299774169922,134.10699462890625 C-108.66899871826172,115.13800048828125 -123.24400329589844,-13.303000450134277 -127.8479995727539,-122.0719985961914 C-128.40199279785156,-135.17799377441406 -130.89100646972656,-160.8780059814453 -103.74400329589844,-165.90699768066406z"
            ></path>
          </g>
        </g>
        <g
          transform="matrix(1,0,0,1,246.50100708007812,310.17523193359375)"
          opacity="1"
          style="display: block"
        >
          <g
            opacity="1"
            transform="matrix(1,0,0,1,24.350000381469727,24.347000122070312)"
          >
            <path
              fill="rgb(59,30,0)"
              fill-opacity="1"
              d=" M24.027000427246094,0.13099999725818634 C23.954999923706055,13.395999908447266 13.133999824523926,24.09600067138672 -0.13300000131130219,24.023000717163086 C-13.401000022888184,23.950000762939453 -24.100000381469727,13.131999969482422 -24.027000427246094,-0.13300000131130219 C-23.95400047302246,-13.401000022888184 -13.13599967956543,-24.09600067138672 0.13199999928474426,-24.023000717163086 C13.399999618530273,-23.950000762939453 24.100000381469727,-13.13700008392334 24.027000427246094,0.13099999725818634z"
            ></path>
          </g>
        </g>
        <g
          transform="matrix(1,0,0,1,199.74899291992188,298.1762390136719)"
          opacity="1"
          style="display: block"
        >
          <g
            opacity="1"
            transform="matrix(1,0,0,1,12.557999610900879,12.557999610900879)"
          >
            <path
              fill="rgb(59,30,0)"
              fill-opacity="1"
              d=" M12.270000457763672,0.0689999982714653 C12.232999801635742,6.8470001220703125 6.708000183105469,12.307999610900879 -0.07000000029802322,12.270999908447266 C-6.843999862670898,12.234000205993652 -12.307999610900879,6.714000225067139 -12.270999908447266,-0.06499999761581421 C-12.232999801635742,-6.8520002365112305 -6.709000110626221,-12.307999610900879 0.06499999761581421,-12.270999908447266 C6.843999862670898,-12.234000205993652 12.307999610900879,-6.7179999351501465 12.270000457763672,0.0689999982714653z"
            ></path>
          </g>
        </g>
        <g
          transform="matrix(1,0,0,1,316.7019958496094,298.82025146484375)"
          opacity="1"
          style="display: block"
        >
          <g
            opacity="1"
            transform="matrix(1,0,0,1,12.557999610900879,12.557999610900879)"
          >
            <path
              fill="rgb(59,30,0)"
              fill-opacity="1"
              d=" M12.270000457763672,0.0689999982714653 C12.232999801635742,6.8480000495910645 6.708000183105469,12.307999610900879 -0.07000000029802322,12.270999908447266 C-6.843999862670898,12.234000205993652 -12.307999610900879,6.714000225067139 -12.270999908447266,-0.06499999761581421 C-12.232999801635742,-6.85099983215332 -6.709000110626221,-12.307999610900879 0.06499999761581421,-12.270999908447266 C6.843999862670898,-12.234000205993652 12.307999610900879,-6.7170000076293945 12.270000457763672,0.0689999982714653z"
            ></path>
          </g>
        </g>
        <g
          transform="matrix(1,0,0,1,167.72900390625,325.45025634765625)"
          opacity="1"
          style="display: block"
        >
          <g
            opacity="1"
            transform="matrix(1,0,0,1,20.7549991607666,14.862000465393066)"
          >
            <path
              fill="rgb(255,199,205)"
              fill-opacity="1"
              d=" M20.429000854492188,0.1899999976158142 C20.354000091552734,8.1899995803833 11.137999534606934,14.612000465393066 -0.14100000262260437,14.505999565124512 C-11.420000076293945,14.39900016784668 -20.5049991607666,7.802000045776367 -20.430999755859375,-0.19699999690055847 C-20.354999542236328,-8.210000038146973 -11.140999794006348,-14.612000465393066 0.14499999582767487,-14.505000114440918 C11.416999816894531,-14.399999618530273 20.5049991607666,-7.822999954223633 20.429000854492188,0.1899999976158142z"
            ></path>
          </g>
        </g>
        <g
          transform="matrix(1,0,0,1,332,326.354248046875)"
          opacity="1"
          style="display: block"
        >
          <g
            opacity="1"
            transform="matrix(1,0,0,1,20.7549991607666,14.862000465393066)"
          >
            <path
              fill="rgb(255,199,205)"
              fill-opacity="1"
              d=" M20.43000030517578,0.1899999976158142 C20.354999542236328,8.1899995803833 11.140000343322754,14.612000465393066 -0.13899999856948853,14.505999565124512 C-11.418999671936035,14.39900016784668 -20.5049991607666,7.802000045776367 -20.429000854492188,-0.19699999690055847 C-20.354000091552734,-8.210000038146973 -11.140000343322754,-14.612000465393066 0.14499999582767487,-14.505000114440918 C11.416999816894531,-14.399999618530273 20.506000518798828,-7.822999954223633 20.43000030517578,0.1899999976158142z"
            ></path>
          </g>
        </g>
        <g
          transform="matrix(1,0,0,1,215.89199829101562,365.4145812988281)"
          opacity="1"
          style="display: none"
        >
          <g
            opacity="1"
            transform="matrix(1,0,0,1,55.534000396728516,24.145000457763672)"
          >
            <path
              stroke-linecap="round"
              stroke-linejoin="round"
              fill-opacity="0"
              stroke="rgb(59,30,0)"
              stroke-opacity="1"
              stroke-width="4.869"
              d=" M-50.665000915527344,-19.275999069213867 C-41.21099853515625,19.275999069213867 1.1959999799728394,17.784000396728516 1.1959999799728394,17.784000396728516 C26.78700065612793,17.784000396728516 44.84600067138672,2.36299991607666 50.665000915527344,-19.275999069213867"
            ></path>
          </g>
        </g>
        <g
          style="display: none"
          transform="matrix(1,0,0,1,217.6020050048828,333.6828308105469)"
          opacity="1"
        >
          <g
            opacity="1"
            transform="matrix(1,0,0,1,53.80699920654297,23.018999099731445)"
          >
            <path
              fill="rgb(159,44,49)"
              fill-opacity="1"
              d=" M0.7499449849128723,17.95807647705078 C-22.264055252075195,18.08707618713379 -40.55481719970703,6.083010673522949 -50.09364700317383,-18.052698135375977 C-51.3419189453125,-21.178604125976562 -53.55799865722656,-19.367000579833984 -52.560001373291016,-16.134000778198242 C-45.64699935913086,6.26200008392334 -24.83799934387207,22.57699966430664 -0.16300000250339508,22.672000885009766 C24.513999938964844,22.76799964904785 45.45000076293945,6.61299991607666 52.53499984741211,-15.727999687194824 C53.55799865722656,-18.95400047302246 50.700721740722656,-20.037288665771484 49.37331771850586,-16.94437026977539 C40.97582244873047,2.7498106956481934 23.753944396972656,17.829076766967773 0.7499449849128723,17.95807647705078z"
            ></path>
          </g>
        </g>
        <g mask="url(#__lottie_element_344)" style="display: none">
          <g
            transform="matrix(1,0,0,1,228.96400451660156,356.8418273925781)"
            opacity="1"
          >
            <g
              opacity="1"
              transform="matrix(1,0,0,1,43.16299819946289,46.85300064086914)"
            >
              <path
                fill="rgb(220,124,99)"
                fill-opacity="1"
                d=" M41.40700149536133,2.496999979019165 C39.9010009765625,27.474000930786133 20.139999389648438,46.60300064086914 -2.7269999980926514,45.224998474121094 C-25.594999313354492,43.84600067138672 -42.9119987487793,22.479999542236328 -41.40599822998047,-2.494999885559082 C-39.900001525878906,-27.472000122070312 -20.139999389648438,-46.60200119018555 2.7269999980926514,-45.222999572753906 C25.594999313354492,-43.84400177001953 42.91299819946289,-22.479000091552734 41.40700149536133,2.496999979019165z"
              ></path>
            </g>
          </g>
        </g>
        <g
          style="display: block"
          transform="matrix(1,0,0,1,215.89199829101562,342.7672424316406)"
          opacity="1"
        >
          <g
            opacity="1"
            transform="matrix(1,0,0,1,55.534000396728516,24.145000457763672)"
          >
            <path
              stroke-linecap="round"
              stroke-linejoin="round"
              fill-opacity="0"
              stroke="rgb(59,30,0)"
              stroke-opacity="1"
              stroke-width="4.869"
              d=" M-50.665000915527344,-19.275999069213867 C-41.21099853515625,19.275999069213867 1.1959999799728394,17.784000396728516 1.1959999799728394,17.784000396728516 C26.78700065612793,17.784000396728516 44.84600067138672,2.36299991607666 50.665000915527344,-19.275999069213867"
            ></path>
          </g>
        </g>
        <g
          style="display: none"
          transform="matrix(0.9997527599334717,-0.022236475721001625,0.022236475721001625,0.9997527599334717,230.46690368652344,345.55517578125)"
          opacity="1"
        >
          <g
            opacity="1"
            transform="matrix(1,0,0,1,53.80699920654297,23.018999099731445)"
          >
            <path
              fill="rgb(159,44,49)"
              fill-opacity="1"
              d=" M0.7489712834358215,17.985931396484375 C-22.26502799987793,18.114931106567383 -40.56222915649414,6.1035380363464355 -50.095767974853516,-18.049367904663086 C-51.342342376708984,-21.177305221557617 -53.55799865722656,-19.367000579833984 -52.560001373291016,-16.134000778198242 C-45.64699935913086,6.26200008392334 -24.83799934387207,22.57699966430664 -0.16300000250339508,22.672000885009766 C24.513999938964844,22.76799964904785 45.45000076293945,6.61299991607666 52.53499984741211,-15.727999687194824 C53.55799865722656,-18.95400047302246 50.70060348510742,-20.035383224487305 49.37483215332031,-16.940433502197266 C40.98372268676758,2.7674195766448975 23.752971649169922,17.856929779052734 0.7489712834358215,17.985931396484375z"
            ></path>
          </g>
        </g>
        <g mask="url(#__lottie_element_332)" style="display: none">
          <g
            transform="matrix(0.9997527599334717,-0.022236475721001625,0.022236475721001625,0.9997527599334717,242.34107971191406,368.4557800292969)"
            opacity="1"
          >
            <g
              opacity="1"
              transform="matrix(1,0,0,1,43.16299819946289,46.85300064086914)"
            >
              <path
                fill="rgb(220,124,99)"
                fill-opacity="1"
                d=" M41.40700149536133,2.496999979019165 C39.9010009765625,27.474000930786133 20.139999389648438,46.60300064086914 -2.7269999980926514,45.224998474121094 C-25.594999313354492,43.84600067138672 -42.9119987487793,22.479999542236328 -41.40599822998047,-2.494999885559082 C-39.900001525878906,-27.472000122070312 -20.139999389648438,-46.60200119018555 2.7269999980926514,-45.222999572753906 C25.594999313354492,-43.84400177001953 42.91299819946289,-22.479000091552734 41.40700149536133,2.496999979019165z"
              ></path>
            </g>
          </g>
        </g>
        <g
          style="display: none"
          transform="matrix(1,-0.00003066698627662845,0.00003066698627662845,1,215.9253692626953,360.46832275390625)"
          opacity="1"
        >
          <g
            opacity="1"
            transform="matrix(1,0,0,1,55.534000396728516,24.145000457763672)"
          >
            <path
              stroke-linecap="round"
              stroke-linejoin="round"
              fill-opacity="0"
              stroke="rgb(59,30,0)"
              stroke-opacity="1"
              stroke-width="4.869"
              d=" M-50.665000915527344,-19.275999069213867 C-41.21099853515625,19.275999069213867 1.1959999799728394,17.784000396728516 1.1959999799728394,17.784000396728516 C26.78700065612793,17.784000396728516 44.84600067138672,2.36299991607666 50.665000915527344,-19.275999069213867"
            ></path>
          </g>
        </g>
        <g
          transform="matrix(1,0,0,1,147.7779998779297,419.917236328125)"
          opacity="1"
          style="display: block"
        >
          <g
            opacity="1"
            transform="matrix(1,0,0,1,123.51000213623047,42.4900016784668)"
          >
            <path
              fill="rgb(255,205,0)"
              fill-opacity="1"
              d=" M121.71299743652344,-38.301998138427734 C120.59200286865234,-41.10499954223633 118.78600311279297,-42.2400016784668 117.11699676513672,-41.500999450683594 C82.91600036621094,-20.48200035095215 38.159000396728516,-16.183000564575195 -1.1629999876022339,-16.183000564575195 C-36.21200180053711,-16.183000564575195 -89.70600128173828,-24.295000076293945 -117.45800018310547,-41.0890007019043 C-118.02400207519531,-41.430999755859375 -118.9000015258789,-41.582000732421875 -119.4739990234375,-41.257999420166016 C-120.44300079345703,-40.709999084472656 -121.66600036621094,-39.56100082397461 -122.39900207519531,-37.834999084472656 C-123.26000213623047,-35.810001373291016 -123.24700164794922,-33.68899917602539 -123.0260009765625,-32.5890007019043 C-122.9739990234375,-32.33399963378906 -122.2509994506836,-31.40999984741211 -122.05799865722656,-31.250999450683594 C-94.75,-8.470999717712402 -60.5620002746582,4.406000137329102 -22.263999938964844,25.757999420166016 C-17.242000579833984,28.558000564575195 -7.877999782562256,32.2400016784668 -0.21899999678134918,32.14500045776367 C8.375,32.03799819946289 16.368999481201172,28.44700050354004 21.45199966430664,25.757999420166016 C57.50899887084961,6.693999767303467 92.44400024414062,-7.89900016784668 121.70099639892578,-31.895000457763672 C121.70099639892578,-31.895000457763672 123.26000213623047,-34.43299865722656 121.71299743652344,-38.301998138427734z"
            ></path>
          </g>
        </g>
        <g
          transform="matrix(1,0,0,1,95.99700927734375,190.0407257080078)"
          opacity="1"
          style="display: block"
        >
          <g
            opacity="1"
            transform="matrix(1,0,0,1,173.8699951171875,173.86900329589844)"
          >
            <path
              fill="rgb(104,61,57)"
              fill-opacity="1"
              d=" M173.6199951171875,0 C173.6199951171875,95.88700103759766 95.88800048828125,173.61900329589844 0,173.61900329589844 C-95.88700103759766,173.61900329589844 -173.6199951171875,95.88700103759766 -173.6199951171875,0 C-173.6199951171875,-95.88700103759766 -95.88700103759766,-173.61900329589844 0,-173.61900329589844 C95.88800048828125,-173.61900329589844 173.6199951171875,-95.88700103759766 173.6199951171875,0z"
            ></path>
          </g>
        </g>
        <g
          transform="matrix(1,0,0,1,185.7010040283203,229.08026123046875)"
          opacity="1"
          style="display: block"
        >
          <g
            opacity="1"
            transform="matrix(1,0,0,1,70.41600036621094,64.23899841308594)"
          >
            <path
              fill="rgb(34,210,249)"
              fill-opacity="1"
              d=" M1.9490000009536743,63.987998962402344 C2.484999895095825,58.43000030517578 1.9179999828338623,-8.842000007629395 -3.990000009536743,-21.253000259399414 C-7.639999866485596,-28.90999984741211 -15.208999633789062,-34.375999450683594 -23.76799964904785,-28.4689998626709 C-27.2549991607666,-26.048999786376953 -29.360000610351562,-21.923999786376953 -33.244998931884766,-18.29599952697754 C-38.44499969482422,-13.454999923706055 -47.270999908447266,-10.800000190734863 -56.38100051879883,-18.145000457763672 C-70.16600036621094,-29.266000747680664 -58.04100036621094,-59.452999114990234 -32.900001525878906,-61.92399978637695 C-11.718999862670898,-63.987998962402344 3.181999921798706,-49.159000396728516 8.536999702453613,-31.71500015258789 C15.845000267028809,-51.72800064086914 29.18400001525879,-59.65299987792969 41.902000427246094,-59.15999984741211 C55.93600082397461,-58.62699890136719 70.16600036621094,-46.98899841308594 65.45899963378906,-32.909000396728516 C62.691001892089844,-24.615999221801758 56.44200134277344,-23.57699966430664 46.72999954223633,-25.500999450683594 C38.93899917602539,-27.073999404907227 29.54800033569336,-29.10099983215332 24.06800079345703,-22.01799964904785 C18.729999542236328,-16.5939998626709 22.57900047302246,37.70500183105469 21.73200035095215,62.39099884033203"
            ></path>
          </g>
        </g>
        <g
          transform="matrix(1,0,0,1,200.27700805664062,250.61524963378906)"
          opacity="1"
          style="display: block"
        >
          <g
            opacity="1"
            transform="matrix(1,0,0,1,8.654999732971191,8.654999732971191)"
          >
            <path
              fill="rgb(184,241,251)"
              fill-opacity="1"
              d=" M8.404999732971191,0 C8.404999732971191,4.642000198364258 4.642000198364258,8.404999732971191 0,8.404999732971191 C-4.642000198364258,8.404999732971191 -8.404999732971191,4.642000198364258 -8.404999732971191,0 C-8.404999732971191,-4.642000198364258 -4.642000198364258,-8.404999732971191 0,-8.404999732971191 C4.642000198364258,-8.404999732971191 8.404999732971191,-4.642000198364258 8.404999732971191,0z"
            ></path>
          </g>
        </g>
        <g
          transform="matrix(1,0,0,1,130.6529998779297,279.19525146484375)"
          opacity="1"
          style="display: block"
        >
          <g
            opacity="1"
            transform="matrix(1,0,0,1,135.22900390625,170.7779998779297)"
          >
            <path
              fill="rgb(214,139,230)"
              fill-opacity="1"
              d=" M99.33499908447266,-138.9969940185547 C74.7760009765625,-168.61199951171875 36.9010009765625,-178.97999572753906 -3.8529999256134033,-177.84300231933594 C-39.448001861572266,-176.85000610351562 -99.30999755859375,-157.6750030517578 -118.37000274658203,-85.24600219726562 C-136.1540069580078,-17.66699981689453 -95.21800231933594,45.154998779296875 -72.5780029296875,89.97899627685547 C-58.59700012207031,117.65899658203125 -49.827999114990234,142.36900329589844 -41.856998443603516,163.09300231933594 C-38.87900161743164,170.83599853515625 -16.34600067138672,154.7830047607422 11.383000373840332,153.0030059814453 C40.41400146484375,151.13900756835938 75.20899963378906,151.9969940185547 75.052001953125,147.6820068359375 C74.51200103759766,132.83599853515625 71.33200073242188,136.04200744628906 84.08499908447266,102.25299835205078 C93.08300018310547,78.41300201416016 103.08699798583984,50.880001068115234 116.6709976196289,16.302000045776367 C136.53500366210938,-34.2599983215332 132.8979949951172,-98.52400207519531 99.33499908447266,-138.9969940185547z"
            ></path>
          </g>
        </g>
        <g
          transform="matrix(1,0,0,1,228.85800170898438,463.51824951171875)"
          opacity="1"
          style="display: block"
        >
          <g
            opacity="1"
            transform="matrix(1,0,0,1,42.95199966430664,57.41999816894531)"
          >
            <path
              fill="rgb(235,206,244)"
              fill-opacity="1"
              d=" M39.9010009765625,-0.06599999964237213 C36.880001068115234,33.70399856567383 25.18000030517578,56.9010009765625 3.5169999599456787,57.03499984741211 C-18.145000457763672,57.16899871826172 -34.58599853515625,35.229000091552734 -38.707000732421875,3.052000045776367 C-42.70199966430664,-28.13800048828125 -27.496999740600586,-56.24399948120117 0.32499998807907104,-56.70800018310547 C27.940000534057617,-57.16899871826172 42.702999114990234,-31.375999450683594 39.9010009765625,-0.06599999964237213z"
            ></path>
          </g>
        </g>
        <g
          transform="matrix(1,0,0,1,108.41000366210938,442.34124755859375)"
          opacity="1"
          style="display: block"
        >
          <g
            opacity="1"
            transform="matrix(1,0,0,1,42.130001068115234,56.45600128173828)"
          >
            <path
              fill="rgb(214,139,230)"
              fill-opacity="1"
              d=" M-26.64299964904785,55.3489990234375 C-30.63599967956543,56.09299850463867 -35.349998474121094,56.207000732421875 -38.097999572753906,53.21500015258789 C-41.88100051879883,49.09700012207031 -39.28799819946289,42.55099868774414 -36.68000030517578,37.604000091552734 C-23.05900001525879,11.763999938964844 -13.39799976348877,-16.125999450683594 -2.815999984741211,-43.28900146484375 C-1.3279999494552612,-47.10900115966797 0.375,-51.19300079345703 3.867000102996826,-53.340999603271484 C8.524999618530273,-56.20600128173828 14.897000312805176,-54.45000076293945 18.91699981689453,-50.74300003051758 C22.934999465942383,-47.0359992980957 25.145999908447266,-41.82099914550781 27.242000579833984,-36.770999908447266 C34.75400161743164,-18.683000564575195 41.88100051879883,4.513999938964844 28.3439998626709,21.009000778198242 C15.815999984741211,36.275001525878906 -7.091000080108643,51.70600128173828 -26.64299964904785,55.3489990234375z"
            ></path>
          </g>
        </g>
        <g mask="url(#__lottie_element_302)" style="display: block">
          <g
            transform="matrix(1,0,0,1,152.70599365234375,477.13824462890625)"
            opacity="1"
          >
            <g
              opacity="1"
              transform="matrix(1,0,0,1,18.889999389648438,32.92399978637695)"
            >
              <path
                fill="rgb(184,115,199)"
                fill-opacity="1"
                d=" M-15.29699993133545,-31.743000030517578 C-14.166999816894531,-32.20800018310547 -12.95300006866455,-32.17100143432617 -11.906000137329102,-31.735000610351562 C-10.859000205993652,-31.298999786376953 -9.977999687194824,-30.46299934387207 -9.512999534606934,-29.33099937438965 C-6.789999961853027,-22.71299934387207 -3.992000102996826,-16.615999221801758 -1.1139999628067017,-10.696999549865723 C1.7630000114440918,-4.7779998779296875 4.71999979019165,0.9620000123977661 7.761000156402588,6.866000175476074 C9.35099983215332,9.95300006866455 10.968000411987305,13.093000411987305 12.604999542236328,16.320999145507812 C14.241999626159668,19.548999786376953 15.901000022888184,22.864999771118164 17.57200050354004,26.30500030517578 C18.641000747680664,28.506000518798828 17.724000930786133,31.158000946044922 15.522000312805176,32.22800064086914 C14.89900016784668,32.529998779296875 14.23799991607666,32.67300033569336 13.58899974822998,32.67300033569336 C11.944999694824219,32.67300033569336 10.366000175476074,31.756000518798828 9.598999977111816,30.17799949645996 C6.302000045776367,23.392000198364258 3.0369999408721924,17.05299949645996 -0.11999999731779099,10.923999786376953 C-6.290999889373779,-1.0570000410079956 -12.119999885559082,-12.371999740600586 -17.708999633789062,-25.95800018310547 C-18.641000747680664,-28.222000122070312 -17.559999465942383,-30.81100082397461 -15.29699993133545,-31.743000030517578z"
              ></path>
            </g>
          </g>
        </g>
        <g
          transform="matrix(1,0,0,1,347.0610046386719,442.34124755859375)"
          opacity="1"
          style="display: block"
        >
          <g
            opacity="1"
            transform="matrix(1,0,0,1,42.130001068115234,56.45600128173828)"
          >
            <path
              fill="rgb(214,139,230)"
              fill-opacity="1"
              d=" M26.64299964904785,55.3489990234375 C30.63599967956543,56.09299850463867 35.349998474121094,56.207000732421875 38.097999572753906,53.21500015258789 C41.88100051879883,49.09700012207031 39.28900146484375,42.55099868774414 36.680999755859375,37.604000091552734 C23.05900001525879,11.763999938964844 13.39799976348877,-16.125999450683594 2.815999984741211,-43.28900146484375 C1.3279999494552612,-47.10900115966797 -0.37400001287460327,-51.19300079345703 -3.865999937057495,-53.340999603271484 C-8.52400016784668,-56.20600128173828 -14.897000312805176,-54.45000076293945 -18.91699981689453,-50.74300003051758 C-22.934999465942383,-47.0359992980957 -25.145999908447266,-41.82099914550781 -27.243000030517578,-36.770999908447266 C-34.75400161743164,-18.683000564575195 -49.215999603271484,2.000999927520752 -35.67900085449219,18.496000289916992 C-23.152000427246094,33.762001037597656 7.091000080108643,51.70600128173828 26.64299964904785,55.3489990234375z"
            ></path>
          </g>
        </g>
        <g mask="url(#__lottie_element_293)" style="display: block">
          <g
            transform="matrix(1,0,0,1,355.77099609375,468.5722351074219)"
            opacity="1"
          >
            <g
              opacity="1"
              transform="matrix(1,0,0,1,17.07200050354004,34.472999572753906)"
            >
              <path
                fill="rgb(184,115,199)"
                fill-opacity="1"
                d=" M13.267000198364258,-33.43000030517578 C15.583000183105469,-32.64099884033203 16.820999145507812,-30.124000549316406 16.0310001373291,-27.80699920654297 C10.753999710083008,-12.322999954223633 5.017000198364258,1.25600004196167 -1.059000015258789,15.630999565124512 C-3.2219998836517334,20.75 -5.458000183105469,26.042999267578125 -7.693999767303467,31.47800064086914 C-8.39900016784668,33.18899917602539 -10.050999641418457,34.222999572753906 -11.793999671936035,34.222999572753906 C-12.355999946594238,34.222999572753906 -12.928000450134277,34.117000579833984 -13.479999542236328,33.88999938964844 C-15.743000030517578,32.95800018310547 -16.82200050354004,30.368999481201172 -15.892000198364258,28.104999542236328 C-13.638999938964844,22.631999969482422 -11.394000053405762,17.31800079345703 -9.222999572753906,12.180000305175781 C-3.2109999656677246,-2.0460000038146973 2.4670000076293945,-15.479999542236328 7.642000198364258,-30.666000366210938 C8.432000160217285,-32.981998443603516 10.949999809265137,-34.222999572753906 13.267000198364258,-33.43000030517578z"
              ></path>
            </g>
          </g>
        </g>
        <g
          transform="matrix(1,0,0,1,208.37600708007812,333.94921875)"
          opacity="1"
          style="display: block"
        >
          <g
            opacity="1"
            transform="matrix(1,0,0,1,14.680999755859375,14.680999755859375)"
          >
            <path
              fill="rgb(44,44,55)"
              fill-opacity="1"
              d=" M14.430999755859375,0 C14.430999755859375,7.96999979019165 7.96999979019165,14.430999755859375 0,14.430999755859375 C-7.96999979019165,14.430999755859375 -14.430999755859375,7.96999979019165 -14.430999755859375,0 C-14.430999755859375,-7.96999979019165 -7.96999979019165,-14.430999755859375 0,-14.430999755859375 C7.96999979019165,-14.430999755859375 14.430999755859375,-7.96999979019165 14.430999755859375,0z"
            ></path>
          </g>
        </g>
        <g
          transform="matrix(1,0,0,1,298.1700134277344,333.94921875)"
          opacity="1"
          style="display: block"
        >
          <g
            opacity="1"
            transform="matrix(1,0,0,1,14.680999755859375,14.680999755859375)"
          >
            <path
              fill="rgb(44,44,55)"
              fill-opacity="1"
              d=" M14.430999755859375,0 C14.430999755859375,7.96999979019165 7.96999979019165,14.430999755859375 0,14.430999755859375 C-7.96999979019165,14.430999755859375 -14.430999755859375,7.96999979019165 -14.430999755859375,0 C-14.430999755859375,-7.96999979019165 -7.96999979019165,-14.430999755859375 0,-14.430999755859375 C7.96999979019165,-14.430999755859375 14.430999755859375,-7.96999979019165 14.430999755859375,0z"
            ></path>
          </g>
        </g>
        <g
          transform="matrix(1,0,0,1,213.8209991455078,371.083251953125)"
          opacity="1"
          style="display: block"
        >
          <g
            opacity="1"
            transform="matrix(1,0,0,1,55.83700180053711,27.209999084472656)"
          >
            <path
              fill="rgb(170,70,130)"
              fill-opacity="1"
              d=" M0.057999998331069946,-23.56800079345703 C-14.939000129699707,-23.56800079345703 -29.402999877929688,-24.461000442504883 -43.01499938964844,-26.118000030517578 C-49.93299865722656,-26.959999084472656 -55.58700180053711,-20.979000091552734 -53.44900131225586,-12.427000045776367 C-48.03799819946289,9.21500015258789 -22.768999099731445,26.959999084472656 0.057999998331069946,26.959999084472656 C22.886999130249023,26.959999084472656 45.43000030517578,10.76200008392334 52.736000061035156,-12.071000099182129 C55.58700180053711,-20.979000091552734 50.05099868774414,-26.959999084472656 43.132999420166016,-26.118000030517578 C29.520000457763672,-24.461000442504883 15.055999755859375,-23.56800079345703 0.057999998331069946,-23.56800079345703z"
            ></path>
          </g>
        </g>
        <g mask="url(#__lottie_element_278)" style="display: block">
          <g
            transform="matrix(1,0,0,1,230.3300018310547,400.1302490234375)"
            opacity="1"
          >
            <g
              opacity="1"
              transform="matrix(1,0,0,1,40.25199890136719,25.5939998626709)"
            >
              <path
                fill="rgb(255,171,183)"
                fill-opacity="1"
                d=" M39.51100158691406,-5.521999835968018 C34.073001861572266,-12.748000144958496 16.67799949645996,-25.3439998626709 -0.3490000069141388,-25.3439998626709 C-17.31599998474121,-25.3439998626709 -34.518001556396484,-11.960000038146973 -40.00199890136719,-4.77400016784668 C-38.529998779296875,9.255999565124512 -24.458999633789062,25.3439998626709 -0.35100001096725464,24.222000122070312 C17.121000289916992,23.409000396728516 40.00199890136719,10.192000389099121 39.51100158691406,-5.521999835968018z"
              ></path>
            </g>
          </g>
        </g>
        <g
          style="display: none"
          transform="matrix(1.9664726257324219,-0.036033108830451965,0.002379442797973752,0.12985582649707794,-36.775604248046875,361.0854797363281)"
          opacity="1"
        >
          <g
            opacity="1"
            transform="matrix(1,0,0,1,163.61700439453125,150.75100708007812)"
          >
            <path
              fill="rgb(170,70,130)"
              fill-opacity="1"
              d=" M23.19099998474121,28.7189998626709 C24.535999298095703,23.614999771118164 25.280000686645508,17.969999313354492 25.280000686645508,12.008000373840332 C25.280000686645508,-10.486000061035156 14.960000038146973,-28.7189998626709 0,-28.7189998626709 C-14.961999893188477,-28.7189998626709 -25.2810001373291,-10.486000061035156 -25.2810001373291,12.008000373840332 C-25.2810001373291,17.969999313354492 -24.53700065612793,23.614999771118164 -23.19300079345703,28.7189998626709 C-16.79400062561035,23.922000885009766 -8.913000106811523,21.114999771118164 0,21.114999771118164 C8.913000106811523,21.114999771118164 16.79199981689453,23.922000885009766 23.19099998474121,28.7189998626709z"
            ></path>
          </g>
          <g
            opacity="1"
            transform="matrix(1,0,0,1,163.61700439453125,187.67599487304688)"
          >
            <path
              fill="rgb(255,171,183)"
              fill-opacity="1"
              d=" M0.0010000000474974513,15.8100004196167 C10.994999885559082,15.8100004196167 19.464000701904297,5.943999767303467 23.19099998474121,-8.206000328063965 C16.79199981689453,-13.003000259399414 8.913999557495117,-15.8100004196167 0.0010000000474974513,-15.8100004196167 C-8.911999702453613,-15.8100004196167 -16.792999267578125,-13.003000259399414 -23.19099998474121,-8.206000328063965 C-19.464000701904297,5.943999767303467 -10.994000434875488,15.8100004196167 0.0010000000474974513,15.8100004196167z"
            ></path>
          </g>
        </g>
        <g
          style="display: none"
          transform="matrix(1,-0.00003066698627662845,0.00003066698627662845,1,213.85523986816406,388.78436279296875)"
          opacity="1"
        >
          <g
            opacity="1"
            transform="matrix(1,0,0,1,55.83700180053711,27.209999084472656)"
          >
            <path
              fill="rgb(170,70,130)"
              fill-opacity="1"
              d=" M0.057999998331069946,-23.582012176513672 C-14.939000129699707,-23.582012176513672 -29.402999877929688,-24.471324920654297 -43.01499938964844,-26.121479034423828 C-49.93299865722656,-26.959999084472656 -55.58700180053711,-21.00370216369629 -53.44900131225586,-12.487030029296875 C-48.03799819946289,9.065573692321777 -22.768999099731445,26.737274169921875 0.057999998331069946,26.737274169921875 C22.886999130249023,26.737274169921875 45.43000030517578,10.606182098388672 52.736000061035156,-12.132499694824219 C55.58700180053711,-21.00370216369629 50.05099868774414,-26.959999084472656 43.132999420166016,-26.121479034423828 C29.520000457763672,-24.471324920654297 15.055999755859375,-23.582012176513672 0.057999998331069946,-23.582012176513672z"
            ></path>
          </g>
        </g>
        <g mask="url(#__lottie_element_266)" style="display: none">
          <g
            transform="matrix(1,-0.00003066698627662845,0.00003066698627662845,1,230.36512756347656,417.7059326171875)"
            opacity="1"
          >
            <g
              opacity="1"
              transform="matrix(1,0,0,1,40.25199890136719,25.5939998626709)"
            >
              <path
                fill="rgb(255,171,183)"
                fill-opacity="1"
                d=" M39.51100158691406,-5.521999835968018 C34.073001861572266,-12.748000144958496 16.67799949645996,-25.3439998626709 -0.3490000069141388,-25.3439998626709 C-17.31599998474121,-25.3439998626709 -34.518001556396484,-11.960000038146973 -40.00199890136719,-4.77400016784668 C-38.529998779296875,9.255999565124512 -24.458999633789062,25.3439998626709 -0.35100001096725464,24.222000122070312 C17.121000289916992,23.409000396728516 40.00199890136719,10.192000389099121 39.51100158691406,-5.521999835968018z"
              ></path>
            </g>
          </g>
        </g>
        <g
          transform="matrix(1,0,0,1,22.115997314453125,18.87274169921875)"
          opacity="1"
          style="display: block"
        >
          <g opacity="1" transform="matrix(1,0,0,1,247.75,758.833984375)">
            <path
              fill="rgb(251,96,94)"
              fill-opacity="1"
              d=" M-71.99800109863281,-35.869998931884766 C-71.99800109863281,17.6299991607666 -45.72200012207031,64.97200012207031 -5.388000011444092,94.01899719238281 C-2.1710000038146973,96.33499908447266 2.1710000038146973,96.33499908447266 5.388000011444092,94.01899719238281 C45.72200012207031,64.97200012207031 71.99800109863281,17.6299991607666 71.99800109863281,-35.869998931884766 C71.99800109863281,-57.27799987792969 67.75299835205078,-77.67900085449219 60.11800003051758,-96.33399963378906 C60.11800003051758,-96.33399963378906 -60.11800003051758,-96.33399963378906 -60.11800003051758,-96.33399963378906 C-67.75299835205078,-77.67900085449219 -71.99800109863281,-57.27799987792969 -71.99800109863281,-35.869998931884766z"
            ></path>
          </g>
          <g opacity="1" transform="matrix(1,0,0,1,247.75,711.4580078125)">
            <path
              fill="rgb(255,208,55)"
              fill-opacity="1"
              d=" M-36.590999603271484,-18.229999542236328 C-36.590999603271484,8.960000038146973 -23.23699951171875,33.02000045776367 -2.73799991607666,47.78200149536133 C-1.1039999723434448,48.95899963378906 1.1030000448226929,48.95899963378906 2.73799991607666,47.78200149536133 C23.236000061035156,33.02000045776367 36.590999603271484,8.960000038146973 36.590999603271484,-18.229999542236328 C36.590999603271484,-29.110000610351562 34.43199920654297,-39.47700119018555 30.55299949645996,-48.95899963378906 C30.55299949645996,-48.95899963378906 -30.55299949645996,-48.95899963378906 -30.55299949645996,-48.95899963378906 C-34.433998107910156,-39.47700119018555 -36.590999603271484,-29.110000610351562 -36.590999603271484,-18.229999542236328z"
            ></path>
          </g>
        </g>
        <g mask="url(#__lottie_element_254)" style="display: block">
          <g
            transform="matrix(1,0,0,1,22.115997314453125,18.87274169921875)"
            opacity="1"
          >
            <g
              opacity="1"
              transform="matrix(1,0,0,1,399.6310119628906,427.02099609375)"
            >
              <path
                fill="rgb(255,133,51)"
                fill-opacity="1"
                d=" M-95.61799621582031,-203.16200256347656 C15.390999794006348,-164.49200439453125 95.61799621582031,-58.57899856567383 95.61799621582031,65.177001953125 C95.61799621582031,65.177001953125 95.61799621582031,153.9669952392578 95.61799621582031,153.9669952392578 C95.61799621582031,164.50599670410156 95.03700256347656,174.91700744628906 93.90399932861328,185.16700744628906 C92.58599853515625,197.0919952392578 78.87200164794922,203.16200256347656 69.1240005493164,196.16700744628906 C69.1240005493164,196.16700744628906 -11.763999938964844,138.1280059814453 -11.763999938964844,138.1280059814453 C-23.71500015258789,129.552001953125 -38.05500030517578,124.94000244140625 -52.76499938964844,124.94000244140625 C-52.76499938964844,124.94000244140625 -95.61799621582031,124.94000244140625 -95.61799621582031,124.94000244140625 C-95.61799621582031,124.94000244140625 -95.61799621582031,-203.16200256347656 -95.61799621582031,-203.16200256347656z"
              ></path>
            </g>
            <g
              opacity="1"
              transform="matrix(1,0,0,1,379.6709899902344,397.8070068359375)"
            >
              <path
                fill="rgb(235,116,58)"
                fill-opacity="1"
                d=" M-75.65799713134766,-173.947998046875 C-75.65799713134766,-173.947998046875 -75.65799713134766,154.1529998779297 -75.65799713134766,154.1529998779297 C-75.65799713134766,154.1529998779297 -32.80500030517578,154.1529998779297 -32.80500030517578,154.1529998779297 C-18.09600067138672,154.1529998779297 -3.75600004196167,158.76600646972656 8.194999694824219,167.3419952392578 C8.194999694824219,167.3419952392578 17.402000427246094,173.947998046875 17.402000427246094,173.947998046875 C52.13100051879883,117.8219985961914 75.65899658203125,54.433998107910156 75.65899658203125,-12.720999717712402 C75.65899658203125,-26.695999145507812 74.8499984741211,-40.49700164794922 73.3550033569336,-54.117000579833984 C39.185001373291016,-109.40399932861328 -13.390000343322754,-152.2570037841797 -75.65799713134766,-173.947998046875z"
              ></path>
            </g>
            <g
              opacity="1"
              transform="matrix(1,0,0,1,95.86900329589844,427.02099609375)"
            >
              <path
                fill="rgb(255,133,51)"
                fill-opacity="1"
                d=" M95.61900329589844,-203.16200256347656 C-15.390000343322754,-164.49200439453125 -95.61900329589844,-58.57899856567383 -95.61900329589844,65.177001953125 C-95.61900329589844,65.177001953125 -95.61900329589844,153.9669952392578 -95.61900329589844,153.9669952392578 C-95.61900329589844,164.50599670410156 -95.03700256347656,174.91700744628906 -93.90399932861328,185.16700744628906 C-92.58599853515625,197.0919952392578 -78.87200164794922,203.16200256347656 -69.1240005493164,196.16700744628906 C-69.1240005493164,196.16700744628906 11.763999938964844,138.1280059814453 11.763999938964844,138.1280059814453 C23.71500015258789,129.552001953125 38.05400085449219,124.94000244140625 52.763999938964844,124.94000244140625 C52.763999938964844,124.94000244140625 95.61900329589844,124.94000244140625 95.61900329589844,124.94000244140625 C95.61900329589844,124.94000244140625 95.61900329589844,-203.16200256347656 95.61900329589844,-203.16200256347656z"
              ></path>
            </g>
            <g
              opacity="1"
              transform="matrix(1,0,0,1,115.8290023803711,397.8070068359375)"
            >
              <path
                fill="rgb(235,116,58)"
                fill-opacity="1"
                d=" M75.66000366210938,154.1529998779297 C75.66000366210938,154.1529998779297 75.66000366210938,-173.947998046875 75.66000366210938,-173.947998046875 C13.390999794006348,-152.2570037841797 -39.18299865722656,-109.40399932861328 -73.3550033569336,-54.117000579833984 C-74.8499984741211,-40.49700164794922 -75.66000366210938,-26.695999145507812 -75.66000366210938,-12.720999717712402 C-75.66000366210938,54.433998107910156 -52.13199996948242,117.8219985961914 -17.402999877929688,173.947998046875 C-17.402999877929688,173.947998046875 -8.196999549865723,167.34100341796875 -8.196999549865723,167.34100341796875 C3.753999948501587,158.76600646972656 18.0939998626709,154.1529998779297 32.80400085449219,154.1529998779297 C32.80400085449219,154.1529998779297 75.66000366210938,154.1529998779297 75.66000366210938,154.1529998779297z"
              ></path>
            </g>
            <g
              opacity="1"
              transform="matrix(1,0,0,1,247.75,295.67999267578125)"
            >
              <path
                fill="rgb(255,208,55)"
                fill-opacity="1"
                d=" M30.00200080871582,-282.7439880371094 C11.991000175476074,-295.42999267578125 -11.991000175476074,-295.42999267578125 -30.00200080871582,-282.7439880371094 C-138.08900451660156,-206.61700439453125 -207.58099365234375,-88.08699798583984 -207.58099365234375,45.077999114990234 C-207.58099365234375,139.11300659179688 -161.46400451660156,225.77200317382812 -103.03299713134766,295.42999267578125 C-103.03299713134766,295.42999267578125 103.03299713134766,295.42999267578125 103.03299713134766,295.42999267578125 C161.46400451660156,225.77200317382812 207.58099365234375,139.11300659179688 207.58099365234375,45.077999114990234 C207.58099365234375,-88.08699798583984 138.08900451660156,-206.61700439453125 30.00200080871582,-282.7439880371094z"
              ></path>
            </g>
            <g opacity="1" transform="matrix(1,0,0,1,247.75,626.8049926757812)">
              <path
                fill="rgb(255,133,51)"
                fill-opacity="1"
                d=" M-103.03299713134766,11.791000366210938 C-103.03299713134766,11.791000366210938 -103.03299713134766,-35.694000244140625 -103.03299713134766,-35.694000244140625 C-103.03299713134766,-35.694000244140625 103.03299713134766,-35.694000244140625 103.03299713134766,-35.694000244140625 C103.03299713134766,-35.694000244140625 103.03299713134766,11.791000366210938 103.03299713134766,11.791000366210938 C103.03299713134766,24.993000030517578 92.33000183105469,35.69499969482422 79.12799835205078,35.69499969482422 C79.12799835205078,35.69499969482422 -79.12799835205078,35.69499969482422 -79.12799835205078,35.69499969482422 C-92.33000183105469,35.69499969482422 -103.03299713134766,24.993000030517578 -103.03299713134766,11.791000366210938z"
              ></path>
            </g>
            <g opacity="1" transform="matrix(1,0,0,1,247.75,89.13600158691406)">
              <path
                fill="rgb(255,133,51)"
                fill-opacity="1"
                d=" M-99.60600280761719,-15.630000114440918 C-109.69300079345703,-4.808000087738037 -119.16100311279297,6.494999885559082 -128.0030059814453,18.214000701904297 C-90.625,15.435999870300293 -47.65599822998047,13.720999717712402 0.0010000000474974513,13.720999717712402 C47.659000396728516,13.720999717712402 90.62699890136719,15.435999870300293 128.0030059814453,18.214000701904297 C119.16300201416016,6.494999885559082 109.69400024414062,-4.808000087738037 99.60700225830078,-15.630000114440918 C67.94999694824219,-17.322999954223633 34.40999984741211,-18.214000701904297 0.0010000000474974513,-18.214000701904297 C-34.40800094604492,-18.214000701904297 -67.9469985961914,-17.322999954223633 -99.60600280761719,-15.630000114440918z"
              ></path>
            </g>
          </g>
        </g>
      </g>
    </svg>