<svg xmlns="http://www.w3.org/2000/svg" viewBox="0 0 540 920" width="540" height="920" preserveAspectRatio="xMidYMid meet" style="width: 100%; height: 100%; transform: translate3d(0px, 0px, 0px);"><defs><clipPath id="__lottie_element_253"><rect width="540" height="920" x="0" y="0"></rect></clipPath><filter id="__lottie_element_258" filterUnits="objectBoundingBox" x="0%" y="0%" width="100%" height="100%"><feComponentTransfer in="SourceGraphic"><feFuncA type="table" tableValues="1.0 0.0"></feFuncA></feComponentTransfer></filter><mask id="__lottie_element_254" mask-type="alpha"><g filter="url(#__lottie_element_258)"><rect width="540" height="920" x="0" y="0" fill="#ffffff" opacity="0"></rect><g transform="matrix(1,0,0,1,95.99700927734375,194.89210510253906)" opacity="1" style="display: block;"><g opacity="1" transform="matrix(1,0,0,1,173.8699951171875,173.86900329589844)"><path fill="rgb(104,61,57)" fill-opacity="1" d=" M173.6199951171875,0 C173.6199951171875,95.88700103759766 95.88800048828125,173.61900329589844 0,173.61900329589844 C-95.88700103759766,173.61900329589844 -173.6199951171875,95.88700103759766 -173.6199951171875,0 C-173.6199951171875,-95.88700103759766 -95.88700103759766,-173.61900329589844 0,-173.61900329589844 C95.88800048828125,-173.61900329589844 173.6199951171875,-95.88700103759766 173.6199951171875,0z"></path></g></g></g></mask><mask id="__lottie_element_266" mask-type="alpha"><g style="display: none;"><g><path></path></g></g></mask><mask id="__lottie_element_278" mask-type="alpha"><g transform="matrix(1,0,0,1,213.8209991455078,407.87518310546875)" opacity="1" style="display: block;"><g opacity="1" transform="matrix(1,0,0,1,55.83700180053711,27.209999084472656)"><path fill="rgb(170,70,130)" fill-opacity="1" d=" M0.057999998331069946,-23.642868041992188 C-14.939000129699707,-23.642868041992188 -29.402999877929688,-24.516162872314453 -43.01499938964844,-26.13658332824707 C-49.93299865722656,-26.959999084472656 -55.58700180053711,-21.110979080200195 -53.44900131225586,-12.747723579406738 C-48.03799819946289,8.416661262512207 -22.768999099731445,25.770048141479492 0.057999998331069946,25.770048141479492 C22.886999130249023,25.770048141479492 45.43000030517578,9.929512023925781 52.736000061035156,-12.39957332611084 C55.58700180053711,-21.110979080200195 50.05099868774414,-26.959999084472656 43.132999420166016,-26.13658332824707 C29.520000457763672,-24.516162872314453 15.055999755859375,-23.642868041992188 0.057999998331069946,-23.642868041992188z"></path></g></g></mask><mask id="__lottie_element_293" mask-type="alpha"><g transform="matrix(1,0,0,1,347.0610046386719,449.1331787109375)" opacity="1" style="display: block;"><g opacity="1" transform="matrix(1,0,0,1,42.130001068115234,56.45600128173828)"><path fill="rgb(214,139,230)" fill-opacity="1" d=" M26.64299964904785,55.3489990234375 C30.63599967956543,56.09299850463867 35.349998474121094,56.207000732421875 38.097999572753906,53.21500015258789 C41.88100051879883,49.09700012207031 39.28900146484375,42.55099868774414 36.680999755859375,37.604000091552734 C23.05900001525879,11.763999938964844 13.39799976348877,-16.125999450683594 2.815999984741211,-43.28900146484375 C1.3279999494552612,-47.10900115966797 -0.37400001287460327,-51.19300079345703 -3.865999937057495,-53.340999603271484 C-8.52400016784668,-56.20600128173828 -14.897000312805176,-54.45000076293945 -18.91699981689453,-50.74300003051758 C-22.934999465942383,-47.0359992980957 -25.145999908447266,-41.82099914550781 -27.243000030517578,-36.770999908447266 C-34.75400161743164,-18.683000564575195 -49.215999603271484,2.000999927520752 -35.67900085449219,18.496000289916992 C-23.152000427246094,33.762001037597656 7.091000080108643,51.70600128173828 26.64299964904785,55.3489990234375z"></path></g></g></mask><mask id="__lottie_element_302" mask-type="alpha"><g transform="matrix(1,0,0,1,108.41000366210938,449.1331787109375)" opacity="1" style="display: block;"><g opacity="1" transform="matrix(1,0,0,1,42.130001068115234,56.45600128173828)"><path fill="rgb(214,139,230)" fill-opacity="1" d=" M-26.64299964904785,55.3489990234375 C-30.63599967956543,56.09299850463867 -35.349998474121094,56.207000732421875 -38.097999572753906,53.21500015258789 C-41.88100051879883,49.09700012207031 -39.28799819946289,42.55099868774414 -36.68000030517578,37.604000091552734 C-23.05900001525879,11.763999938964844 -13.39799976348877,-16.125999450683594 -2.815999984741211,-43.28900146484375 C-1.3279999494552612,-47.10900115966797 0.375,-51.19300079345703 3.867000102996826,-53.340999603271484 C8.524999618530273,-56.20600128173828 14.897000312805176,-54.45000076293945 18.91699981689453,-50.74300003051758 C22.934999465942383,-47.0359992980957 25.145999908447266,-41.82099914550781 27.242000579833984,-36.770999908447266 C34.75400161743164,-18.683000564575195 41.88100051879883,4.513999938964844 28.3439998626709,21.009000778198242 C15.815999984741211,36.275001525878906 -7.091000080108643,51.70600128173828 -26.64299964904785,55.3489990234375z"></path></g></g></mask><mask id="__lottie_element_332" mask-type="alpha"><g style="display: none;"><g><path></path></g></g></mask><mask id="__lottie_element_344" mask-type="alpha"><g style="display: block;" transform="matrix(1,0,0,1,217.6020050048828,398.54071044921875)" opacity="1"><g opacity="1" transform="matrix(1,0,0,1,53.80699920654297,23.018999099731445)"><path fill="rgb(159,44,49)" fill-opacity="1" d=" M1.939741611480713,-16.078393936157227 C-21.07425880432129,-15.949394226074219 -31.495195388793945,-19.000389099121094 -47.50391387939453,-22.122276306152344 C-50.8229866027832,-22.765987396240234 -53.55799865722656,-19.367000579833984 -52.560001373291016,-16.134000778198242 C-45.64699935913086,6.26200008392334 -24.83799934387207,22.57699966430664 -0.16300000250339508,22.672000885009766 C24.513999938964844,22.76799964904785 45.45000076293945,6.61299991607666 52.53499984741211,-15.727999687194824 C53.55799865722656,-18.95400047302246 50.847721099853516,-22.365581512451172 47.52350997924805,-21.753870010375977 C31.3193302154541,-18.76715850830078 24.943740844726562,-16.207393646240234 1.939741611480713,-16.078393936157227z"></path></g></g></mask></defs><g clip-path="url(#__lottie_element_253)"><g transform="matrix(1,0,0,1,112.87300109863281,432.7831726074219)" opacity="1" style="display: block;"><g opacity="1" transform="matrix(1,0,0,1,34.70899963378906,60.202999114990234)"><path fill="rgb(255,255,255)" fill-opacity="1" d=" M-1.9600000381469727,-53.69599914550781 C3.9030001163482666,-57.83399963378906 11.618000030517578,-59.95199966430664 15.692000389099121,-58.3129997253418 C21.56100082397461,-55.95199966430664 34.45899963378906,-45.619998931884766 29.351999282836914,-30.812999725341797 C24.791000366210938,-17.59000015258789 17.339000701904297,-11.505999565124512 11.890999794006348,6.803999900817871 C8.010000228881836,19.8439998626709 7.214000225067139,32.34299850463867 1.6950000524520874,41.98099899291992 C-10.99899959564209,59.952999114990234 -34.45899963378906,44.94900131225586 -32.85900115966797,23.179000854492188 C-33.21500015258789,-13.854999542236328 -14.08899974822998,-45.1349983215332 -1.9600000381469727,-53.69599914550781z"></path></g></g><g transform="matrix(1,0,0,1,357.4419860839844,432.7831726074219)" opacity="1" style="display: block;"><g opacity="1" transform="matrix(1,0,0,1,34.08700180053711,56.630001068115234)"><path fill="rgb(255,255,255)" fill-opacity="1" d=" M2.5820000171661377,-50.12300109863281 C-3.2799999713897705,-54.26100158691406 -10.994999885559082,-56.380001068115234 -15.069000244140625,-54.74100112915039 C-20.93899917602539,-52.380001068115234 -33.83700180053711,-42.04800033569336 -28.729999542236328,-27.240999221801758 C-24.167999267578125,-14.017999649047852 -16.718000411987305,-7.934000015258789 -11.270000457763672,10.37600040435791 C-7.388999938964844,23.416000366210938 -6.5929999351501465,35.915000915527344 -1.0729999542236328,45.553001403808594 C3.568000078201294,53.65599822998047 15.48799991607666,56.380001068115234 24.711999893188477,49.27299880981445 C30.319000244140625,44.952999114990234 33.393001556396484,36.16699981689453 33.481998443603516,26.75200080871582 C33.8380012512207,-10.281999588012695 14.711999893188477,-41.5620002746582 2.5820000171661377,-50.12300109863281z"></path></g></g><g transform="matrix(1,0,0,1,140.63999938964844,253.4051513671875)" opacity="1" style="display: block;"><g opacity="1" transform="matrix(1,0,0,1,128.14100646972656,163.21299743652344)"><path fill="rgb(255,255,255)" fill-opacity="1" d=" M-100.74400329589844,-159.90699768066406 C-85.1259994506836,-162.8000030517578 -73.81800079345703,-152.78799438476562 -71.52200317382812,-136.9499969482422 C-50.845001220703125,-143.47000122070312 -23.97800064086914,-146.71600341796875 -1.1430000066757202,-146.8419952392578 C24.097999572753906,-146.9810028076172 53.57899856567383,-142.51699829101562 72.09100341796875,-136.07400512695312 C73.6520004272461,-149.39300537109375 80.50599670410156,-162.96299743652344 99.90399932861328,-160.88800048828125 C127.89099884033203,-157.89500427246094 124.88700103759766,-128.531005859375 125,-115.41500091552734 C125.3499984741211,-75.00599670410156 122.7969970703125,-19.697999954223633 121.18900299072266,6.0960001945495605 C117.22799682617188,69.62000274658203 114.07099914550781,95.86399841308594 107.99299621582031,140.73800659179688 C105.26100158691406,160.90899658203125 46.525001525878906,162.0189971923828 2.111999988555908,162.4709930419922 C-46.172000885009766,162.96299743652344 -104.27100372314453,151.781005859375 -106.39299774169922,134.10699462890625 C-108.66899871826172,115.13800048828125 -120.24400329589844,-7.302999973297119 -124.8479995727539,-116.0719985961914 C-125.4020004272461,-129.17799377441406 -127.89099884033203,-154.8780059814453 -100.74400329589844,-159.90699768066406z"></path></g></g><g transform="matrix(1,0,0,1,246.50100708007812,346.9671630859375)" opacity="1" style="display: block;"><g opacity="1" transform="matrix(1,0,0,1,24.350000381469727,24.347000122070312)"><path fill="rgb(59,30,0)" fill-opacity="1" d=" M24.027000427246094,0.13099999725818634 C23.954999923706055,13.395999908447266 13.133999824523926,24.09600067138672 -0.13300000131130219,24.023000717163086 C-13.401000022888184,23.950000762939453 -24.100000381469727,13.131999969482422 -24.027000427246094,-0.13300000131130219 C-23.95400047302246,-13.401000022888184 -13.13599967956543,-24.09600067138672 0.13199999928474426,-24.023000717163086 C13.399999618530273,-23.950000762939453 24.100000381469727,-13.13700008392334 24.027000427246094,0.13099999725818634z"></path></g></g><g transform="matrix(1,0,0,1,199.74899291992188,334.9681701660156)" opacity="1" style="display: block;"><g opacity="1" transform="matrix(1,0,0,1,12.557999610900879,12.557999610900879)"><path fill="rgb(59,30,0)" fill-opacity="1" d=" M12.270000457763672,0.0689999982714653 C12.232999801635742,6.8470001220703125 6.708000183105469,12.307999610900879 -0.07000000029802322,12.270999908447266 C-6.843999862670898,12.234000205993652 -12.307999610900879,6.714000225067139 -12.270999908447266,-0.06499999761581421 C-12.232999801635742,-6.8520002365112305 -6.709000110626221,-12.307999610900879 0.06499999761581421,-12.270999908447266 C6.843999862670898,-12.234000205993652 12.307999610900879,-6.7179999351501465 12.270000457763672,0.0689999982714653z"></path></g></g><g transform="matrix(1,0,0,1,316.7019958496094,335.6121826171875)" opacity="1" style="display: block;"><g opacity="1" transform="matrix(1,0,0,1,12.557999610900879,12.557999610900879)"><path fill="rgb(59,30,0)" fill-opacity="1" d=" M12.270000457763672,0.0689999982714653 C12.232999801635742,6.8480000495910645 6.708000183105469,12.307999610900879 -0.07000000029802322,12.270999908447266 C-6.843999862670898,12.234000205993652 -12.307999610900879,6.714000225067139 -12.270999908447266,-0.06499999761581421 C-12.232999801635742,-6.85099983215332 -6.709000110626221,-12.307999610900879 0.06499999761581421,-12.270999908447266 C6.843999862670898,-12.234000205993652 12.307999610900879,-6.7170000076293945 12.270000457763672,0.0689999982714653z"></path></g></g><g transform="matrix(1,0,0,1,167.72900390625,362.2421875)" opacity="1" style="display: block;"><g opacity="1" transform="matrix(1,0,0,1,20.7549991607666,14.862000465393066)"><path fill="rgb(255,199,205)" fill-opacity="1" d=" M20.429000854492188,0.1899999976158142 C20.354000091552734,8.1899995803833 11.137999534606934,14.612000465393066 -0.14100000262260437,14.505999565124512 C-11.420000076293945,14.39900016784668 -20.5049991607666,7.802000045776367 -20.430999755859375,-0.19699999690055847 C-20.354999542236328,-8.210000038146973 -11.140999794006348,-14.612000465393066 0.14499999582767487,-14.505000114440918 C11.416999816894531,-14.399999618530273 20.5049991607666,-7.822999954223633 20.429000854492188,0.1899999976158142z"></path></g></g><g transform="matrix(1,0,0,1,332,363.14617919921875)" opacity="1" style="display: block;"><g opacity="1" transform="matrix(1,0,0,1,20.7549991607666,14.862000465393066)"><path fill="rgb(255,199,205)" fill-opacity="1" d=" M20.43000030517578,0.1899999976158142 C20.354999542236328,8.1899995803833 11.140000343322754,14.612000465393066 -0.13899999856948853,14.505999565124512 C-11.418999671936035,14.39900016784668 -20.5049991607666,7.802000045776367 -20.429000854492188,-0.19699999690055847 C-20.354000091552734,-8.210000038146973 -11.140000343322754,-14.612000465393066 0.14499999582767487,-14.505000114440918 C11.416999816894531,-14.399999618530273 20.506000518798828,-7.822999954223633 20.43000030517578,0.1899999976158142z"></path></g></g><g transform="matrix(1,0,0,1,215.89199829101562,364.7359619140625)" opacity="1" style="display: none;"><g opacity="1" transform="matrix(1,0,0,1,55.534000396728516,24.145000457763672)"><path stroke-linecap="round" stroke-linejoin="round" fill-opacity="0" stroke="rgb(59,30,0)" stroke-opacity="1" stroke-width="4.869" d=" M-50.665000915527344,-19.275999069213867 C-41.21099853515625,19.275999069213867 1.1959999799728394,17.784000396728516 1.1959999799728394,17.784000396728516 C26.78700065612793,17.784000396728516 44.84600067138672,2.36299991607666 50.665000915527344,-19.275999069213867"></path></g></g><g style="display: block;" transform="matrix(1,0,0,1,217.6020050048828,398.54071044921875)" opacity="1"><g opacity="1" transform="matrix(1,0,0,1,53.80699920654297,23.018999099731445)"><path fill="rgb(159,44,49)" fill-opacity="1" d=" M1.939741611480713,-16.078393936157227 C-21.07425880432129,-15.949394226074219 -31.495195388793945,-19.000389099121094 -47.50391387939453,-22.122276306152344 C-50.8229866027832,-22.765987396240234 -53.55799865722656,-19.367000579833984 -52.560001373291016,-16.134000778198242 C-45.64699935913086,6.26200008392334 -24.83799934387207,22.57699966430664 -0.16300000250339508,22.672000885009766 C24.513999938964844,22.76799964904785 45.45000076293945,6.61299991607666 52.53499984741211,-15.727999687194824 C53.55799865722656,-18.95400047302246 50.847721099853516,-22.365581512451172 47.52350997924805,-21.753870010375977 C31.3193302154541,-18.76715850830078 24.943740844726562,-16.207393646240234 1.939741611480713,-16.078393936157227z"></path></g></g><g mask="url(#__lottie_element_344)" style="display: block;"><g transform="matrix(1,0,0,1,228.96400451660156,421.69970703125)" opacity="1"><g opacity="1" transform="matrix(1,0,0,1,43.16299819946289,46.85300064086914)"><path fill="rgb(220,124,99)" fill-opacity="1" d=" M41.40700149536133,2.496999979019165 C39.9010009765625,27.474000930786133 20.139999389648438,46.60300064086914 -2.7269999980926514,45.224998474121094 C-25.594999313354492,43.84600067138672 -42.9119987487793,22.479999542236328 -41.40599822998047,-2.494999885559082 C-39.900001525878906,-27.472000122070312 -20.139999389648438,-46.60200119018555 2.7269999980926514,-45.222999572753906 C25.594999313354492,-43.84400177001953 42.91299819946289,-22.479000091552734 41.40700149536133,2.496999979019165z"></path></g></g></g><g style="display: none;" transform="matrix(1,0,0,1,215.89199829101562,360.3926696777344)" opacity="1"><g opacity="1" transform="matrix(1,0,0,1,55.534000396728516,24.145000457763672)"><path stroke-linecap="round" stroke-linejoin="round" fill-opacity="0" stroke="rgb(59,30,0)" stroke-opacity="1" stroke-width="4.869" d=" M-50.665000915527344,-19.275999069213867 C-41.21099853515625,19.275999069213867 1.1959999799728394,17.784000396728516 1.1959999799728394,17.784000396728516 C26.78700065612793,17.784000396728516 44.84600067138672,2.36299991607666 50.665000915527344,-19.275999069213867"></path></g></g><g style="display: none;"><g><path></path></g></g><g mask="url(#__lottie_element_332)" style="display: none;"><g><g><path></path></g></g></g><g style="display: none;"><g><path stroke-linecap="round" stroke-linejoin="round" fill-opacity="0"></path></g></g><g transform="matrix(1,0,0,1,147.7779998779297,426.70916748046875)" opacity="1" style="display: block;"><g opacity="1" transform="matrix(1,0,0,1,123.51000213623047,42.4900016784668)"><path fill="rgb(255,205,0)" fill-opacity="1" d=" M121.71299743652344,-38.301998138427734 C120.59200286865234,-41.10499954223633 118.78600311279297,-42.2400016784668 117.11699676513672,-41.500999450683594 C82.91600036621094,-20.48200035095215 38.159000396728516,-6.183000087738037 -1.1629999876022339,-6.183000087738037 C-36.21200180053711,-6.183000087738037 -89.70600128173828,-24.295000076293945 -117.45800018310547,-41.0890007019043 C-118.02400207519531,-41.430999755859375 -118.9000015258789,-41.582000732421875 -119.4739990234375,-41.257999420166016 C-120.44300079345703,-40.709999084472656 -121.66600036621094,-39.56100082397461 -122.39900207519531,-37.834999084472656 C-123.26000213623047,-35.810001373291016 -123.24700164794922,-33.68899917602539 -123.0260009765625,-32.5890007019043 C-122.9739990234375,-32.33399963378906 -122.2509994506836,-31.40999984741211 -122.05799865722656,-31.250999450683594 C-94.75,-8.470999717712402 -60.5620002746582,14.406000137329102 -22.263999938964844,35.757999420166016 C-17.242000579833984,38.55799865722656 -7.877999782562256,42.2400016784668 -0.21899999678134918,42.14500045776367 C8.375,42.03799819946289 16.368999481201172,38.446998596191406 21.45199966430664,35.757999420166016 C57.50899887084961,16.694000244140625 92.44400024414062,-7.89900016784668 121.70099639892578,-31.895000457763672 C121.70099639892578,-31.895000457763672 123.26000213623047,-34.43299865722656 121.71299743652344,-38.301998138427734z"></path></g></g><g transform="matrix(1,0,0,1,95.99700927734375,194.89210510253906)" opacity="1" style="display: block;"><g opacity="1" transform="matrix(1,0,0,1,173.8699951171875,173.86900329589844)"><path fill="rgb(104,61,57)" fill-opacity="1" d=" M173.6199951171875,0 C173.6199951171875,95.88700103759766 95.88800048828125,173.61900329589844 0,173.61900329589844 C-95.88700103759766,173.61900329589844 -173.6199951171875,95.88700103759766 -173.6199951171875,0 C-173.6199951171875,-95.88700103759766 -95.88700103759766,-173.61900329589844 0,-173.61900329589844 C95.88800048828125,-173.61900329589844 173.6199951171875,-95.88700103759766 173.6199951171875,0z"></path></g></g><g transform="matrix(1,0,0,1,185.7010040283203,225.8721923828125)" opacity="1" style="display: block;"><g opacity="1" transform="matrix(1,0,0,1,70.41600036621094,64.23899841308594)"><path fill="rgb(34,210,249)" fill-opacity="1" d=" M1.9490000009536743,63.987998962402344 C2.484999895095825,58.43000030517578 1.9179999828338623,-8.842000007629395 -3.990000009536743,-21.253000259399414 C-7.639999866485596,-28.90999984741211 -15.208999633789062,-34.375999450683594 -23.76799964904785,-28.4689998626709 C-27.2549991607666,-26.048999786376953 -29.360000610351562,-21.923999786376953 -33.244998931884766,-18.29599952697754 C-38.44499969482422,-13.454999923706055 -47.270999908447266,-10.800000190734863 -56.38100051879883,-18.145000457763672 C-70.16600036621094,-29.266000747680664 -58.04100036621094,-59.452999114990234 -32.900001525878906,-61.92399978637695 C-11.718999862670898,-63.987998962402344 3.181999921798706,-49.159000396728516 8.536999702453613,-31.71500015258789 C15.845000267028809,-51.72800064086914 29.18400001525879,-59.65299987792969 41.902000427246094,-59.15999984741211 C55.93600082397461,-58.62699890136719 70.16600036621094,-46.98899841308594 65.45899963378906,-32.909000396728516 C62.691001892089844,-24.615999221801758 56.44200134277344,-23.57699966430664 46.72999954223633,-25.500999450683594 C38.93899917602539,-27.073999404907227 29.54800033569336,-29.10099983215332 24.06800079345703,-22.01799964904785 C18.729999542236328,-16.5939998626709 22.57900047302246,37.70500183105469 21.73200035095215,62.39099884033203"></path></g></g><g transform="matrix(1,0,0,1,200.27700805664062,247.40719604492188)" opacity="1" style="display: block;"><g opacity="1" transform="matrix(1,0,0,1,8.654999732971191,8.654999732971191)"><path fill="rgb(184,241,251)" fill-opacity="1" d=" M8.404999732971191,0 C8.404999732971191,4.642000198364258 4.642000198364258,8.404999732971191 0,8.404999732971191 C-4.642000198364258,8.404999732971191 -8.404999732971191,4.642000198364258 -8.404999732971191,0 C-8.404999732971191,-4.642000198364258 -4.642000198364258,-8.404999732971191 0,-8.404999732971191 C4.642000198364258,-8.404999732971191 8.404999732971191,-4.642000198364258 8.404999732971191,0z"></path></g></g><g transform="matrix(1,0,0,1,130.6529998779297,285.9871826171875)" opacity="1" style="display: block;"><g opacity="1" transform="matrix(1,0,0,1,135.22900390625,170.7779998779297)"><path fill="rgb(214,139,230)" fill-opacity="1" d=" M98.1520004272461,-130.94500732421875 C73.83899688720703,-160.26400756835938 36.34299850463867,-170.52699279785156 -4.002999782562256,-169.4010009765625 C-39.24100112915039,-168.41700744628906 -98.5009994506836,-149.43499755859375 -117.37200164794922,-77.73200225830078 C-134.97900390625,-10.829999923706055 -94.38600158691406,51.327999114990234 -72.03900146484375,95.73799896240234 C-59.83599853515625,119.98899841308594 -45.75299835205078,145.21800231933594 -45.040000915527344,162.3209991455078 C-44.69900131225586,170.52699279785156 -16.3700008392334,159.89100646972656 11.081000328063965,158.1300048828125 C39.82099914550781,156.28500366210938 67.53500366210938,165.5229949951172 67.37999725341797,161.2530059814453 C66.84500122070312,146.5540008544922 67.75900268554688,141.33900451660156 80.38500213623047,107.88800048828125 C89.29399871826172,84.28600311279297 101.86599731445312,57.029998779296875 115.31400299072266,22.798999786376953 C134.97900390625,-27.256999969482422 131.37899780273438,-90.87799835205078 98.1520004272461,-130.94500732421875z"></path></g></g><g transform="matrix(1,0,0,1,228.85800170898438,490.3101806640625)" opacity="1" style="display: block;"><g opacity="1" transform="matrix(1,0,0,1,42.95199966430664,57.41999816894531)"><path fill="rgb(235,206,244)" fill-opacity="1" d=" M39.9010009765625,-0.06599999964237213 C36.880001068115234,33.70399856567383 25.18000030517578,56.9010009765625 3.5169999599456787,57.03499984741211 C-18.145000457763672,57.16899871826172 -34.58599853515625,35.229000091552734 -38.707000732421875,3.052000045776367 C-42.70199966430664,-28.13800048828125 -27.496999740600586,-56.24399948120117 0.32499998807907104,-56.70800018310547 C27.940000534057617,-57.16899871826172 42.702999114990234,-31.375999450683594 39.9010009765625,-0.06599999964237213z"></path></g></g><g transform="matrix(1,0,0,1,108.41000366210938,449.1331787109375)" opacity="1" style="display: block;"><g opacity="1" transform="matrix(1,0,0,1,42.130001068115234,56.45600128173828)"><path fill="rgb(214,139,230)" fill-opacity="1" d=" M-26.64299964904785,55.3489990234375 C-30.63599967956543,56.09299850463867 -35.349998474121094,56.207000732421875 -38.097999572753906,53.21500015258789 C-41.88100051879883,49.09700012207031 -39.28799819946289,42.55099868774414 -36.68000030517578,37.604000091552734 C-23.05900001525879,11.763999938964844 -13.39799976348877,-16.125999450683594 -2.815999984741211,-43.28900146484375 C-1.3279999494552612,-47.10900115966797 0.375,-51.19300079345703 3.867000102996826,-53.340999603271484 C8.524999618530273,-56.20600128173828 14.897000312805176,-54.45000076293945 18.91699981689453,-50.74300003051758 C22.934999465942383,-47.0359992980957 25.145999908447266,-41.82099914550781 27.242000579833984,-36.770999908447266 C34.75400161743164,-18.683000564575195 41.88100051879883,4.513999938964844 28.3439998626709,21.009000778198242 C15.815999984741211,36.275001525878906 -7.091000080108643,51.70600128173828 -26.64299964904785,55.3489990234375z"></path></g></g><g mask="url(#__lottie_element_302)" style="display: block;"><g transform="matrix(1,0,0,1,152.70599365234375,483.93017578125)" opacity="1"><g opacity="1" transform="matrix(1,0,0,1,18.889999389648438,32.92399978637695)"><path fill="rgb(184,115,199)" fill-opacity="1" d=" M-15.29699993133545,-31.743000030517578 C-14.166999816894531,-32.20800018310547 -12.95300006866455,-32.17100143432617 -11.906000137329102,-31.735000610351562 C-10.859000205993652,-31.298999786376953 -9.977999687194824,-30.46299934387207 -9.512999534606934,-29.33099937438965 C-6.789999961853027,-22.71299934387207 -3.992000102996826,-16.615999221801758 -1.1139999628067017,-10.696999549865723 C1.7630000114440918,-4.7779998779296875 4.71999979019165,0.9620000123977661 7.761000156402588,6.866000175476074 C9.35099983215332,9.95300006866455 10.968000411987305,13.093000411987305 12.604999542236328,16.320999145507812 C14.241999626159668,19.548999786376953 15.901000022888184,22.864999771118164 17.57200050354004,26.30500030517578 C18.641000747680664,28.506000518798828 17.724000930786133,31.158000946044922 15.522000312805176,32.22800064086914 C14.89900016784668,32.529998779296875 14.23799991607666,32.67300033569336 13.58899974822998,32.67300033569336 C11.944999694824219,32.67300033569336 10.366000175476074,31.756000518798828 9.598999977111816,30.17799949645996 C6.302000045776367,23.392000198364258 3.0369999408721924,17.05299949645996 -0.11999999731779099,10.923999786376953 C-6.290999889373779,-1.0570000410079956 -12.119999885559082,-12.371999740600586 -17.708999633789062,-25.95800018310547 C-18.641000747680664,-28.222000122070312 -17.559999465942383,-30.81100082397461 -15.29699993133545,-31.743000030517578z"></path></g></g></g><g transform="matrix(1,0,0,1,347.0610046386719,449.1331787109375)" opacity="1" style="display: block;"><g opacity="1" transform="matrix(1,0,0,1,42.130001068115234,56.45600128173828)"><path fill="rgb(214,139,230)" fill-opacity="1" d=" M26.64299964904785,55.3489990234375 C30.63599967956543,56.09299850463867 35.349998474121094,56.207000732421875 38.097999572753906,53.21500015258789 C41.88100051879883,49.09700012207031 39.28900146484375,42.55099868774414 36.680999755859375,37.604000091552734 C23.05900001525879,11.763999938964844 13.39799976348877,-16.125999450683594 2.815999984741211,-43.28900146484375 C1.3279999494552612,-47.10900115966797 -0.37400001287460327,-51.19300079345703 -3.865999937057495,-53.340999603271484 C-8.52400016784668,-56.20600128173828 -14.897000312805176,-54.45000076293945 -18.91699981689453,-50.74300003051758 C-22.934999465942383,-47.0359992980957 -25.145999908447266,-41.82099914550781 -27.243000030517578,-36.770999908447266 C-34.75400161743164,-18.683000564575195 -49.215999603271484,2.000999927520752 -35.67900085449219,18.496000289916992 C-23.152000427246094,33.762001037597656 7.091000080108643,51.70600128173828 26.64299964904785,55.3489990234375z"></path></g></g><g mask="url(#__lottie_element_293)" style="display: block;"><g transform="matrix(1,0,0,1,355.77099609375,475.3641662597656)" opacity="1"><g opacity="1" transform="matrix(1,0,0,1,17.07200050354004,34.472999572753906)"><path fill="rgb(184,115,199)" fill-opacity="1" d=" M13.267000198364258,-33.43000030517578 C15.583000183105469,-32.64099884033203 16.820999145507812,-30.124000549316406 16.0310001373291,-27.80699920654297 C10.753999710083008,-12.322999954223633 5.017000198364258,1.25600004196167 -1.059000015258789,15.630999565124512 C-3.2219998836517334,20.75 -5.458000183105469,26.042999267578125 -7.693999767303467,31.47800064086914 C-8.39900016784668,33.18899917602539 -10.050999641418457,34.222999572753906 -11.793999671936035,34.222999572753906 C-12.355999946594238,34.222999572753906 -12.928000450134277,34.117000579833984 -13.479999542236328,33.88999938964844 C-15.743000030517578,32.95800018310547 -16.82200050354004,30.368999481201172 -15.892000198364258,28.104999542236328 C-13.638999938964844,22.631999969482422 -11.394000053405762,17.31800079345703 -9.222999572753906,12.180000305175781 C-3.2109999656677246,-2.0460000038146973 2.4670000076293945,-15.479999542236328 7.642000198364258,-30.666000366210938 C8.432000160217285,-32.981998443603516 10.949999809265137,-34.222999572753906 13.267000198364258,-33.43000030517578z"></path></g></g></g><g transform="matrix(1,0,0,1,208.37600708007812,370.74114990234375)" opacity="1" style="display: block;"><g opacity="1" transform="matrix(1,0,0,1,14.680999755859375,14.680999755859375)"><path fill="rgb(44,44,55)" fill-opacity="1" d=" M14.430999755859375,0 C14.430999755859375,7.96999979019165 7.96999979019165,14.430999755859375 0,14.430999755859375 C-7.96999979019165,14.430999755859375 -14.430999755859375,7.96999979019165 -14.430999755859375,0 C-14.430999755859375,-7.96999979019165 -7.96999979019165,-14.430999755859375 0,-14.430999755859375 C7.96999979019165,-14.430999755859375 14.430999755859375,-7.96999979019165 14.430999755859375,0z"></path></g></g><g transform="matrix(1,0,0,1,298.1700134277344,370.74114990234375)" opacity="1" style="display: block;"><g opacity="1" transform="matrix(1,0,0,1,14.680999755859375,14.680999755859375)"><path fill="rgb(44,44,55)" fill-opacity="1" d=" M14.430999755859375,0 C14.430999755859375,7.96999979019165 7.96999979019165,14.430999755859375 0,14.430999755859375 C-7.96999979019165,14.430999755859375 -14.430999755859375,7.96999979019165 -14.430999755859375,0 C-14.430999755859375,-7.96999979019165 -7.96999979019165,-14.430999755859375 0,-14.430999755859375 C7.96999979019165,-14.430999755859375 14.430999755859375,-7.96999979019165 14.430999755859375,0z"></path></g></g><g transform="matrix(1,0,0,1,213.8209991455078,407.87518310546875)" opacity="1" style="display: block;"><g opacity="1" transform="matrix(1,0,0,1,55.83700180053711,27.209999084472656)"><path fill="rgb(170,70,130)" fill-opacity="1" d=" M0.057999998331069946,-23.642868041992188 C-14.939000129699707,-23.642868041992188 -29.402999877929688,-24.516162872314453 -43.01499938964844,-26.13658332824707 C-49.93299865722656,-26.959999084472656 -55.58700180053711,-21.110979080200195 -53.44900131225586,-12.747723579406738 C-48.03799819946289,8.416661262512207 -22.768999099731445,25.770048141479492 0.057999998331069946,25.770048141479492 C22.886999130249023,25.770048141479492 45.43000030517578,9.929512023925781 52.736000061035156,-12.39957332611084 C55.58700180053711,-21.110979080200195 50.05099868774414,-26.959999084472656 43.132999420166016,-26.13658332824707 C29.520000457763672,-24.516162872314453 15.055999755859375,-23.642868041992188 0.057999998331069946,-23.642868041992188z"></path></g></g><g mask="url(#__lottie_element_278)" style="display: block;"><g transform="matrix(1,0,0,1,230.3300018310547,436.2546691894531)" opacity="1"><g opacity="1" transform="matrix(1,0,0,1,40.25199890136719,25.5939998626709)"><path fill="rgb(255,171,183)" fill-opacity="1" d=" M39.51100158691406,-5.521999835968018 C34.073001861572266,-12.748000144958496 16.67799949645996,-25.3439998626709 -0.3490000069141388,-25.3439998626709 C-17.31599998474121,-25.3439998626709 -34.518001556396484,-11.960000038146973 -40.00199890136719,-4.77400016784668 C-38.529998779296875,9.255999565124512 -24.458999633789062,25.3439998626709 -0.35100001096725464,24.222000122070312 C17.121000289916992,23.409000396728516 40.00199890136719,10.192000389099121 39.51100158691406,-5.521999835968018z"></path></g></g></g><g style="display: none;"><g><path></path></g><g><path></path></g></g><g style="display: none;"><g><path></path></g></g><g mask="url(#__lottie_element_266)" style="display: none;"><g><g><path></path></g></g></g><g transform="matrix(1,0,0,1,22.115997314453125,23.72412109375)" opacity="1" style="display: block;"><g opacity="1" transform="matrix(1,0,0,1,247.75,758.833984375)"><path fill="rgb(251,96,94)" fill-opacity="1" d=" M-71.99800109863281,-35.869998931884766 C-71.99800109863281,17.6299991607666 -45.72200012207031,64.97200012207031 -5.388000011444092,94.01899719238281 C-2.1710000038146973,96.33499908447266 2.1710000038146973,96.33499908447266 5.388000011444092,94.01899719238281 C45.72200012207031,64.97200012207031 71.99800109863281,17.6299991607666 71.99800109863281,-35.869998931884766 C71.99800109863281,-57.27799987792969 67.75299835205078,-77.67900085449219 60.11800003051758,-96.33399963378906 C60.11800003051758,-96.33399963378906 -60.11800003051758,-96.33399963378906 -60.11800003051758,-96.33399963378906 C-67.75299835205078,-77.67900085449219 -71.99800109863281,-57.27799987792969 -71.99800109863281,-35.869998931884766z"></path></g><g opacity="1" transform="matrix(1,0,0,1,247.75,711.4580078125)"><path fill="rgb(255,208,55)" fill-opacity="1" d=" M-36.590999603271484,-18.229999542236328 C-36.590999603271484,8.960000038146973 -23.23699951171875,33.02000045776367 -2.73799991607666,47.78200149536133 C-1.1039999723434448,48.95899963378906 1.1030000448226929,48.95899963378906 2.73799991607666,47.78200149536133 C23.236000061035156,33.02000045776367 36.590999603271484,8.960000038146973 36.590999603271484,-18.229999542236328 C36.590999603271484,-29.110000610351562 34.43199920654297,-39.47700119018555 30.55299949645996,-48.95899963378906 C30.55299949645996,-48.95899963378906 -30.55299949645996,-48.95899963378906 -30.55299949645996,-48.95899963378906 C-34.433998107910156,-39.47700119018555 -36.590999603271484,-29.110000610351562 -36.590999603271484,-18.229999542236328z"></path></g></g><g mask="url(#__lottie_element_254)" style="display: block;"><g transform="matrix(1,0,0,1,22.115997314453125,23.72412109375)" opacity="1"><g opacity="1" transform="matrix(1,0,0,1,399.6310119628906,427.02099609375)"><path fill="rgb(255,133,51)" fill-opacity="1" d=" M-95.61799621582031,-203.16200256347656 C15.390999794006348,-164.49200439453125 95.61799621582031,-58.57899856567383 95.61799621582031,65.177001953125 C95.61799621582031,65.177001953125 95.61799621582031,153.9669952392578 95.61799621582031,153.9669952392578 C95.61799621582031,164.50599670410156 95.03700256347656,174.91700744628906 93.90399932861328,185.16700744628906 C92.58599853515625,197.0919952392578 78.87200164794922,203.16200256347656 69.1240005493164,196.16700744628906 C69.1240005493164,196.16700744628906 -11.763999938964844,138.1280059814453 -11.763999938964844,138.1280059814453 C-23.71500015258789,129.552001953125 -38.05500030517578,124.94000244140625 -52.76499938964844,124.94000244140625 C-52.76499938964844,124.94000244140625 -95.61799621582031,124.94000244140625 -95.61799621582031,124.94000244140625 C-95.61799621582031,124.94000244140625 -95.61799621582031,-203.16200256347656 -95.61799621582031,-203.16200256347656z"></path></g><g opacity="1" transform="matrix(1,0,0,1,379.6709899902344,397.8070068359375)"><path fill="rgb(235,116,58)" fill-opacity="1" d=" M-75.65799713134766,-173.947998046875 C-75.65799713134766,-173.947998046875 -75.65799713134766,154.1529998779297 -75.65799713134766,154.1529998779297 C-75.65799713134766,154.1529998779297 -32.80500030517578,154.1529998779297 -32.80500030517578,154.1529998779297 C-18.09600067138672,154.1529998779297 -3.75600004196167,158.76600646972656 8.194999694824219,167.3419952392578 C8.194999694824219,167.3419952392578 17.402000427246094,173.947998046875 17.402000427246094,173.947998046875 C52.13100051879883,117.8219985961914 75.65899658203125,54.433998107910156 75.65899658203125,-12.720999717712402 C75.65899658203125,-26.695999145507812 74.8499984741211,-40.49700164794922 73.3550033569336,-54.117000579833984 C39.185001373291016,-109.40399932861328 -13.390000343322754,-152.2570037841797 -75.65799713134766,-173.947998046875z"></path></g><g opacity="1" transform="matrix(1,0,0,1,95.86900329589844,427.02099609375)"><path fill="rgb(255,133,51)" fill-opacity="1" d=" M95.61900329589844,-203.16200256347656 C-15.390000343322754,-164.49200439453125 -95.61900329589844,-58.57899856567383 -95.61900329589844,65.177001953125 C-95.61900329589844,65.177001953125 -95.61900329589844,153.9669952392578 -95.61900329589844,153.9669952392578 C-95.61900329589844,164.50599670410156 -95.03700256347656,174.91700744628906 -93.90399932861328,185.16700744628906 C-92.58599853515625,197.0919952392578 -78.87200164794922,203.16200256347656 -69.1240005493164,196.16700744628906 C-69.1240005493164,196.16700744628906 11.763999938964844,138.1280059814453 11.763999938964844,138.1280059814453 C23.71500015258789,129.552001953125 38.05400085449219,124.94000244140625 52.763999938964844,124.94000244140625 C52.763999938964844,124.94000244140625 95.61900329589844,124.94000244140625 95.61900329589844,124.94000244140625 C95.61900329589844,124.94000244140625 95.61900329589844,-203.16200256347656 95.61900329589844,-203.16200256347656z"></path></g><g opacity="1" transform="matrix(1,0,0,1,115.8290023803711,397.8070068359375)"><path fill="rgb(235,116,58)" fill-opacity="1" d=" M75.66000366210938,154.1529998779297 C75.66000366210938,154.1529998779297 75.66000366210938,-173.947998046875 75.66000366210938,-173.947998046875 C13.390999794006348,-152.2570037841797 -39.18299865722656,-109.40399932861328 -73.3550033569336,-54.117000579833984 C-74.8499984741211,-40.49700164794922 -75.66000366210938,-26.695999145507812 -75.66000366210938,-12.720999717712402 C-75.66000366210938,54.433998107910156 -52.13199996948242,117.8219985961914 -17.402999877929688,173.947998046875 C-17.402999877929688,173.947998046875 -8.196999549865723,167.34100341796875 -8.196999549865723,167.34100341796875 C3.753999948501587,158.76600646972656 18.0939998626709,154.1529998779297 32.80400085449219,154.1529998779297 C32.80400085449219,154.1529998779297 75.66000366210938,154.1529998779297 75.66000366210938,154.1529998779297z"></path></g><g opacity="1" transform="matrix(1,0,0,1,247.75,295.67999267578125)"><path fill="rgb(255,208,55)" fill-opacity="1" d=" M30.00200080871582,-282.7439880371094 C11.991000175476074,-295.42999267578125 -11.991000175476074,-295.42999267578125 -30.00200080871582,-282.7439880371094 C-138.08900451660156,-206.61700439453125 -207.58099365234375,-88.08699798583984 -207.58099365234375,45.077999114990234 C-207.58099365234375,139.11300659179688 -161.46400451660156,225.77200317382812 -103.03299713134766,295.42999267578125 C-103.03299713134766,295.42999267578125 103.03299713134766,295.42999267578125 103.03299713134766,295.42999267578125 C161.46400451660156,225.77200317382812 207.58099365234375,139.11300659179688 207.58099365234375,45.077999114990234 C207.58099365234375,-88.08699798583984 138.08900451660156,-206.61700439453125 30.00200080871582,-282.7439880371094z"></path></g><g opacity="1" transform="matrix(1,0,0,1,247.75,626.8049926757812)"><path fill="rgb(255,133,51)" fill-opacity="1" d=" M-103.03299713134766,11.791000366210938 C-103.03299713134766,11.791000366210938 -103.03299713134766,-35.694000244140625 -103.03299713134766,-35.694000244140625 C-103.03299713134766,-35.694000244140625 103.03299713134766,-35.694000244140625 103.03299713134766,-35.694000244140625 C103.03299713134766,-35.694000244140625 103.03299713134766,11.791000366210938 103.03299713134766,11.791000366210938 C103.03299713134766,24.993000030517578 92.33000183105469,35.69499969482422 79.12799835205078,35.69499969482422 C79.12799835205078,35.69499969482422 -79.12799835205078,35.69499969482422 -79.12799835205078,35.69499969482422 C-92.33000183105469,35.69499969482422 -103.03299713134766,24.993000030517578 -103.03299713134766,11.791000366210938z"></path></g><g opacity="1" transform="matrix(1,0,0,1,247.75,89.13600158691406)"><path fill="rgb(255,133,51)" fill-opacity="1" d=" M-99.60600280761719,-15.630000114440918 C-109.69300079345703,-4.808000087738037 -119.16100311279297,6.494999885559082 -128.0030059814453,18.214000701904297 C-90.625,15.435999870300293 -47.65599822998047,13.720999717712402 0.0010000000474974513,13.720999717712402 C47.659000396728516,13.720999717712402 90.62699890136719,15.435999870300293 128.0030059814453,18.214000701904297 C119.16300201416016,6.494999885559082 109.69400024414062,-4.808000087738037 99.60700225830078,-15.630000114440918 C67.94999694824219,-17.322999954223633 34.40999984741211,-18.214000701904297 0.0010000000474974513,-18.214000701904297 C-34.40800094604492,-18.214000701904297 -67.9469985961914,-17.322999954223633 -99.60600280761719,-15.630000114440918z"></path></g></g></g></g></svg>