<svg xmlns="http://www.w3.org/2000/svg" viewBox="0 0 440 440" width="440" height="440" preserveAspectRatio="xMidYMid meet" style="width: 100%; height: 100%; transform: translate3d(0px, 0px, 0px);"><defs><clipPath id="__lottie_element_126"><rect width="440" height="440" x="0" y="0"></rect></clipPath><mask id="__lottie_element_129" mask-type="alpha"><g style="display: block;" transform="matrix(1,0,0,1,66.80400085449219,139.7259979248047)" opacity="1"><g opacity="1" transform="matrix(1,0,0,1,153.08200073242188,120.26200103759766)"><path fill="rgb(0,255,103)" fill-opacity="1" d=" M-65.9209976196289,-120.01200103759766 C-117.56600189208984,-119.46399688720703 -152.83200073242188,-75.26599884033203 -146.03700256347656,-24.06800079345703 C-136.875,44.96900177001953 -62.04199981689453,92.83000183105469 -23.20400047302246,113.2750015258789 C-8.670999526977539,120.92400360107422 8.673999786376953,120.92400360107422 23.207000732421875,113.2750015258789 C62.04499816894531,92.8290023803711 136.8820037841797,44.965999603271484 146.0399932861328,-24.072999954223633 C152.83200073242188,-75.27100372314453 117.56500244140625,-119.46600341796875 65.91999816894531,-120.01200103759766 C65.91999816894531,-120.01200103759766 -65.9209976196289,-120.01200103759766 -65.9209976196289,-120.01200103759766z"></path></g></g></mask><mask id="__lottie_element_135" mask-type="alpha"><g style="display: block;" transform="matrix(1,0,0,1,66.80400085449219,139.7259979248047)" opacity="1"><g opacity="1" transform="matrix(1,0,0,1,153.08200073242188,120.26200103759766)"><path fill="rgb(0,255,103)" fill-opacity="1" d=" M-65.9209976196289,-120.01200103759766 C-117.56600189208984,-119.46399688720703 -152.83200073242188,-75.26599884033203 -146.03700256347656,-24.06800079345703 C-136.875,44.96900177001953 -62.04199981689453,92.83000183105469 -23.20400047302246,113.2750015258789 C-8.670999526977539,120.92400360107422 8.673999786376953,120.92400360107422 23.207000732421875,113.2750015258789 C62.04499816894531,92.8290023803711 136.8820037841797,44.965999603271484 146.0399932861328,-24.072999954223633 C152.83200073242188,-75.27100372314453 117.56500244140625,-119.46600341796875 65.91999816894531,-120.01200103759766 C65.91999816894531,-120.01200103759766 -65.9209976196289,-120.01200103759766 -65.9209976196289,-120.01200103759766z"></path></g></g></mask><mask id="__lottie_element_141" mask-type="alpha"><g style="display: block;" transform="matrix(1,0,0,1,66.80400085449219,139.7259979248047)" opacity="1"><g opacity="1" transform="matrix(1,0,0,1,153.08200073242188,120.26200103759766)"><path fill="rgb(0,255,103)" fill-opacity="1" d=" M-65.9209976196289,-120.01200103759766 C-117.56600189208984,-119.46399688720703 -152.83200073242188,-75.26599884033203 -146.03700256347656,-24.06800079345703 C-136.875,44.96900177001953 -62.04199981689453,92.83000183105469 -23.20400047302246,113.2750015258789 C-8.670999526977539,120.92400360107422 8.673999786376953,120.92400360107422 23.207000732421875,113.2750015258789 C62.04499816894531,92.8290023803711 136.8820037841797,44.965999603271484 146.0399932861328,-24.072999954223633 C152.83200073242188,-75.27100372314453 117.56500244140625,-119.46600341796875 65.91999816894531,-120.01200103759766 C65.91999816894531,-120.01200103759766 -65.9209976196289,-120.01200103759766 -65.9209976196289,-120.01200103759766z"></path></g></g></mask><mask id="__lottie_element_147" mask-type="alpha"><g style="display: block;" transform="matrix(1,0,0,1,66.80400085449219,139.7259979248047)" opacity="1"><g opacity="1" transform="matrix(1,0,0,1,153.08200073242188,120.26200103759766)"><path fill="rgb(0,255,103)" fill-opacity="1" d=" M-65.9209976196289,-120.01200103759766 C-117.56600189208984,-119.46399688720703 -152.83200073242188,-75.26599884033203 -146.03700256347656,-24.06800079345703 C-136.875,44.96900177001953 -62.04199981689453,92.83000183105469 -23.20400047302246,113.2750015258789 C-8.670999526977539,120.92400360107422 8.673999786376953,120.92400360107422 23.207000732421875,113.2750015258789 C62.04499816894531,92.8290023803711 136.8820037841797,44.965999603271484 146.0399932861328,-24.072999954223633 C152.83200073242188,-75.27100372314453 117.56500244140625,-119.46600341796875 65.91999816894531,-120.01200103759766 C65.91999816894531,-120.01200103759766 -65.9209976196289,-120.01200103759766 -65.9209976196289,-120.01200103759766z"></path></g></g></mask><mask id="__lottie_element_153" mask-type="alpha"><g style="display: none;" transform="matrix(1,0,0,1,66.80400085449219,139.7259979248047)" opacity="1"><g opacity="1" transform="matrix(1,0,0,1,153.08200073242188,120.26200103759766)"><path fill="rgb(0,255,103)" fill-opacity="1" d=" M-65.9209976196289,-120.01200103759766 C-117.56600189208984,-119.46399688720703 -152.83200073242188,-75.26599884033203 -146.03700256347656,-24.06800079345703 C-136.875,44.96900177001953 -62.04199981689453,92.83000183105469 -23.20400047302246,113.2750015258789 C-8.670999526977539,120.92400360107422 8.673999786376953,120.92400360107422 23.207000732421875,113.2750015258789 C62.04499816894531,92.8290023803711 136.8820037841797,44.965999603271484 146.0399932861328,-24.072999954223633 C152.83200073242188,-75.27100372314453 117.56500244140625,-119.46600341796875 65.91999816894531,-120.01200103759766 C65.91999816894531,-120.01200103759766 -65.9209976196289,-120.01200103759766 -65.9209976196289,-120.01200103759766z"></path></g></g></mask><mask id="__lottie_element_159" mask-type="alpha"><g style="display: none;" transform="matrix(1,0,0,1,66.80400085449219,139.7259979248047)" opacity="1"><g opacity="1" transform="matrix(1,0,0,1,153.08200073242188,120.26200103759766)"><path fill="rgb(0,255,103)" fill-opacity="1" d=" M-65.9209976196289,-120.01200103759766 C-117.56600189208984,-119.46399688720703 -152.83200073242188,-75.26599884033203 -146.03700256347656,-24.06800079345703 C-136.875,44.96900177001953 -62.04199981689453,92.83000183105469 -23.20400047302246,113.2750015258789 C-8.670999526977539,120.92400360107422 8.673999786376953,120.92400360107422 23.207000732421875,113.2750015258789 C62.04499816894531,92.8290023803711 136.8820037841797,44.965999603271484 146.0399932861328,-24.072999954223633 C152.83200073242188,-75.27100372314453 117.56500244140625,-119.46600341796875 65.91999816894531,-120.01200103759766 C65.91999816894531,-120.01200103759766 -65.9209976196289,-120.01200103759766 -65.9209976196289,-120.01200103759766z"></path></g></g></mask><mask id="__lottie_element_165" mask-type="alpha"><g style="display: block;" transform="matrix(1,0,0,1,66.80400085449219,139.7259979248047)" opacity="1"><g opacity="1" transform="matrix(1,0,0,1,153.08200073242188,120.26200103759766)"><path fill="rgb(0,255,103)" fill-opacity="1" d=" M-65.9209976196289,-120.01200103759766 C-117.56600189208984,-119.46399688720703 -152.83200073242188,-75.26599884033203 -146.03700256347656,-24.06800079345703 C-136.875,44.96900177001953 -62.04199981689453,92.83000183105469 -23.20400047302246,113.2750015258789 C-8.670999526977539,120.92400360107422 8.673999786376953,120.92400360107422 23.207000732421875,113.2750015258789 C62.04499816894531,92.8290023803711 136.8820037841797,44.965999603271484 146.0399932861328,-24.072999954223633 C152.83200073242188,-75.27100372314453 117.56500244140625,-119.46600341796875 65.91999816894531,-120.01200103759766 C65.91999816894531,-120.01200103759766 -65.9209976196289,-120.01200103759766 -65.9209976196289,-120.01200103759766z"></path></g></g></mask><mask id="__lottie_element_171" mask-type="alpha"><g style="display: block;" transform="matrix(1,0,0,1,66.80400085449219,139.7259979248047)" opacity="1"><g opacity="1" transform="matrix(1,0,0,1,153.08200073242188,120.26200103759766)"><path fill="rgb(0,255,103)" fill-opacity="1" d=" M-65.9209976196289,-120.01200103759766 C-117.56600189208984,-119.46399688720703 -152.83200073242188,-75.26599884033203 -146.03700256347656,-24.06800079345703 C-136.875,44.96900177001953 -62.04199981689453,92.83000183105469 -23.20400047302246,113.2750015258789 C-8.670999526977539,120.92400360107422 8.673999786376953,120.92400360107422 23.207000732421875,113.2750015258789 C62.04499816894531,92.8290023803711 136.8820037841797,44.965999603271484 146.0399932861328,-24.072999954223633 C152.83200073242188,-75.27100372314453 117.56500244140625,-119.46600341796875 65.91999816894531,-120.01200103759766 C65.91999816894531,-120.01200103759766 -65.9209976196289,-120.01200103759766 -65.9209976196289,-120.01200103759766z"></path></g></g></mask><mask id="__lottie_element_177" mask-type="alpha"><g style="display: block;" transform="matrix(1,0,0,1,66.80400085449219,139.7259979248047)" opacity="1"><g opacity="1" transform="matrix(1,0,0,1,153.08200073242188,120.26200103759766)"><path fill="rgb(0,255,103)" fill-opacity="1" d=" M-65.9209976196289,-120.01200103759766 C-117.56600189208984,-119.46399688720703 -152.83200073242188,-75.26599884033203 -146.03700256347656,-24.06800079345703 C-136.875,44.96900177001953 -62.04199981689453,92.83000183105469 -23.20400047302246,113.2750015258789 C-8.670999526977539,120.92400360107422 8.673999786376953,120.92400360107422 23.207000732421875,113.2750015258789 C62.04499816894531,92.8290023803711 136.8820037841797,44.965999603271484 146.0399932861328,-24.072999954223633 C152.83200073242188,-75.27100372314453 117.56500244140625,-119.46600341796875 65.91999816894531,-120.01200103759766 C65.91999816894531,-120.01200103759766 -65.9209976196289,-120.01200103759766 -65.9209976196289,-120.01200103759766z"></path></g></g></mask><mask id="__lottie_element_183" mask-type="alpha"><g transform="matrix(1.1941012144088745,0,0,1.1941012144088745,37.06846618652344,116.38066864013672)" opacity="1" style="display: none;"><g opacity="1" transform="matrix(1,0,0,1,153.08200073242188,120.26200103759766)"><path fill="rgb(0,255,103)" fill-opacity="1" d=" M-65.9209976196289,-120.01200103759766 C-117.56600189208984,-119.46399688720703 -152.83200073242188,-75.26599884033203 -146.03700256347656,-24.06800079345703 C-136.875,44.96900177001953 -62.04199981689453,92.83000183105469 -23.20400047302246,113.2750015258789 C-8.670999526977539,120.92400360107422 8.673999786376953,120.92400360107422 23.207000732421875,113.2750015258789 C62.04499816894531,92.8290023803711 136.8820037841797,44.965999603271484 146.0399932861328,-24.072999954223633 C152.83200073242188,-75.27100372314453 117.56500244140625,-119.46600341796875 65.91999816894531,-120.01200103759766 C65.91999816894531,-120.01200103759766 -65.9209976196289,-120.01200103759766 -65.9209976196289,-120.01200103759766z"></path></g></g></mask><mask id="__lottie_element_189" mask-type="alpha"><g transform="matrix(0.9896419048309326,0,0,0.9896419048309326,68.39082336425781,140.9718017578125)" opacity="1" style="display: none;"><g opacity="1" transform="matrix(1,0,0,1,153.08200073242188,120.26200103759766)"><path fill="rgb(0,255,103)" fill-opacity="1" d=" M-65.9209976196289,-120.01200103759766 C-117.56600189208984,-119.46399688720703 -152.83200073242188,-75.26599884033203 -146.03700256347656,-24.06800079345703 C-136.875,44.96900177001953 -62.04199981689453,92.83000183105469 -23.20400047302246,113.2750015258789 C-8.670999526977539,120.92400360107422 8.673999786376953,120.92400360107422 23.207000732421875,113.2750015258789 C62.04499816894531,92.8290023803711 136.8820037841797,44.965999603271484 146.0399932861328,-24.072999954223633 C152.83200073242188,-75.27100372314453 117.56500244140625,-119.46600341796875 65.91999816894531,-120.01200103759766 C65.91999816894531,-120.01200103759766 -65.9209976196289,-120.01200103759766 -65.9209976196289,-120.01200103759766z"></path></g></g></mask><mask id="__lottie_element_195" mask-type="alpha"><g transform="matrix(0.9642078876495361,0,0,0.9642078876495361,72.28721618652344,144.03085327148438)" opacity="1" style="display: none;"><g opacity="1" transform="matrix(1,0,0,1,153.08200073242188,120.26200103759766)"><path fill="rgb(0,255,103)" fill-opacity="1" d=" M-65.9209976196289,-120.01200103759766 C-117.56600189208984,-119.46399688720703 -152.83200073242188,-75.26599884033203 -146.03700256347656,-24.06800079345703 C-136.875,44.96900177001953 -62.04199981689453,92.83000183105469 -23.20400047302246,113.2750015258789 C-8.670999526977539,120.92400360107422 8.673999786376953,120.92400360107422 23.207000732421875,113.2750015258789 C62.04499816894531,92.8290023803711 136.8820037841797,44.965999603271484 146.0399932861328,-24.072999954223633 C152.83200073242188,-75.27100372314453 117.56500244140625,-119.46600341796875 65.91999816894531,-120.01200103759766 C65.91999816894531,-120.01200103759766 -65.9209976196289,-120.01200103759766 -65.9209976196289,-120.01200103759766z"></path></g></g></mask><mask id="__lottie_element_201" mask-type="alpha"><g transform="matrix(0.9995794892311096,0,0,0.9995794892311096,66.86842346191406,139.77658081054688)" opacity="1" style="display: none;"><g opacity="1" transform="matrix(1,0,0,1,153.08200073242188,120.26200103759766)"><path fill="rgb(0,255,103)" fill-opacity="1" d=" M-65.9209976196289,-120.01200103759766 C-117.56600189208984,-119.46399688720703 -152.83200073242188,-75.26599884033203 -146.03700256347656,-24.06800079345703 C-136.875,44.96900177001953 -62.04199981689453,92.83000183105469 -23.20400047302246,113.2750015258789 C-8.670999526977539,120.92400360107422 8.673999786376953,120.92400360107422 23.207000732421875,113.2750015258789 C62.04499816894531,92.8290023803711 136.8820037841797,44.965999603271484 146.0399932861328,-24.072999954223633 C152.83200073242188,-75.27100372314453 117.56500244140625,-119.46600341796875 65.91999816894531,-120.01200103759766 C65.91999816894531,-120.01200103759766 -65.9209976196289,-120.01200103759766 -65.9209976196289,-120.01200103759766z"></path></g></g></mask><mask id="__lottie_element_207" mask-type="alpha"><g transform="matrix(1,0,0,1,66.80400085449219,139.7259979248047)" opacity="1" style="display: none;"><g opacity="1" transform="matrix(1,0,0,1,153.08200073242188,120.26200103759766)"><path fill="rgb(0,255,103)" fill-opacity="1" d=" M-65.9209976196289,-120.01200103759766 C-117.56600189208984,-119.46399688720703 -152.83200073242188,-75.26599884033203 -146.03700256347656,-24.06800079345703 C-136.875,44.96900177001953 -62.04199981689453,92.83000183105469 -23.20400047302246,113.2750015258789 C-8.670999526977539,120.92400360107422 8.673999786376953,120.92400360107422 23.207000732421875,113.2750015258789 C62.04499816894531,92.8290023803711 136.8820037841797,44.965999603271484 146.0399932861328,-24.072999954223633 C152.83200073242188,-75.27100372314453 117.56500244140625,-119.46600341796875 65.91999816894531,-120.01200103759766 C65.91999816894531,-120.01200103759766 -65.9209976196289,-120.01200103759766 -65.9209976196289,-120.01200103759766z"></path></g></g></mask><mask id="__lottie_element_213" mask-type="alpha"><g transform="matrix(1,0,0,1,66.80400085449219,139.7259979248047)" opacity="1" style="display: block;"><g opacity="1" transform="matrix(1,0,0,1,153.08200073242188,120.26200103759766)"><path fill="rgb(0,255,103)" fill-opacity="1" d=" M-65.9209976196289,-120.01200103759766 C-117.56600189208984,-119.46399688720703 -152.83200073242188,-75.26599884033203 -146.03700256347656,-24.06800079345703 C-136.875,44.96900177001953 -62.04199981689453,92.83000183105469 -23.20400047302246,113.2750015258789 C-8.670999526977539,120.92400360107422 8.673999786376953,120.92400360107422 23.207000732421875,113.2750015258789 C62.04499816894531,92.8290023803711 136.8820037841797,44.965999603271484 146.0399932861328,-24.072999954223633 C152.83200073242188,-75.27100372314453 117.56500244140625,-119.46600341796875 65.91999816894531,-120.01200103759766 C65.91999816894531,-120.01200103759766 -65.9209976196289,-120.01200103759766 -65.9209976196289,-120.01200103759766z"></path></g></g></mask><mask id="__lottie_element_219" mask-type="alpha"><g transform="matrix(1,0,0,1,66.80400085449219,139.7259979248047)" opacity="1" style="display: block;"><g opacity="1" transform="matrix(1,0,0,1,153.08200073242188,120.26200103759766)"><path fill="rgb(0,255,103)" fill-opacity="1" d=" M-65.9209976196289,-120.01200103759766 C-117.56600189208984,-119.46399688720703 -152.83200073242188,-75.26599884033203 -146.03700256347656,-24.06800079345703 C-136.875,44.96900177001953 -62.04199981689453,92.83000183105469 -23.20400047302246,113.2750015258789 C-8.670999526977539,120.92400360107422 8.673999786376953,120.92400360107422 23.207000732421875,113.2750015258789 C62.04499816894531,92.8290023803711 136.8820037841797,44.965999603271484 146.0399932861328,-24.072999954223633 C152.83200073242188,-75.27100372314453 117.56500244140625,-119.46600341796875 65.91999816894531,-120.01200103759766 C65.91999816894531,-120.01200103759766 -65.9209976196289,-120.01200103759766 -65.9209976196289,-120.01200103759766z"></path></g></g></mask></defs><g clip-path="url(#__lottie_element_126)"><g style="display: block;" transform="matrix(0,0,0,0,152.85299682617188,58.56700134277344)" opacity="1"><g opacity="1" transform="matrix(1,0,0,1,34.323001861572266,36.07699966430664)"><path fill="rgb(255,133,51)" fill-opacity="1" d=" M31.632999420166016,-2.944999933242798 C31.632999420166016,-2.944999933242798 13.404000282287598,-11.940999984741211 13.404000282287598,-11.940999984741211 C13.404000282287598,-11.940999984741211 10.479999542236328,-32.05799865722656 10.479999542236328,-32.05799865722656 C10.08899974822998,-34.75199890136719 6.7789998054504395,-35.82699966430664 4.880000114440918,-33.87799835205078 C4.880000114440918,-33.87799835205078 -9.309000015258789,-19.320999145507812 -9.309000015258789,-19.320999145507812 C-9.309000015258789,-19.320999145507812 -29.34600067138672,-22.757999420166016 -29.34600067138672,-22.757999420166016 C-32.02899932861328,-23.218000411987305 -34.07400131225586,-20.402000427246094 -32.80699920654297,-17.993000030517578 C-32.80699920654297,-17.993000030517578 -23.347999572753906,0 -23.347999572753906,0 C-23.347999572753906,0 -32.80699920654297,17.993000030517578 -32.80699920654297,17.993000030517578 C-34.07400131225586,20.402000427246094 -32.02899932861328,23.218000411987305 -29.34600067138672,22.757999420166016 C-29.34600067138672,22.757999420166016 -9.309000015258789,19.32200050354004 -9.309000015258789,19.32200050354004 C-9.309000015258789,19.32200050354004 4.880000114440918,33.87799835205078 4.880000114440918,33.87799835205078 C6.7789998054504395,35.82699966430664 10.08899974822998,34.75199890136719 10.479999542236328,32.05799865722656 C10.479999542236328,32.05799865722656 13.404000282287598,11.940999984741211 13.404000282287598,11.940999984741211 C13.404000282287598,11.940999984741211 31.632999420166016,2.944999933242798 31.632999420166016,2.944999933242798 C34.07400131225586,1.7400000095367432 34.07400131225586,-1.7400000095367432 31.632999420166016,-2.944999933242798z"></path></g></g><g style="display: block;" transform="matrix(0,0,0,0,380.6080017089844,110.46499633789062)" opacity="1"><g opacity="1" transform="matrix(1,0,0,1,31.889999389648438,33.518001556396484)"><path fill="rgb(255,97,95)" fill-opacity="1" d=" M-29.37299919128418,-2.7339999675750732 C-29.37299919128418,-2.7339999675750732 -12.446000099182129,-11.088000297546387 -12.446000099182129,-11.088000297546387 C-12.446000099182129,-11.088000297546387 -9.730999946594238,-29.76799964904785 -9.730999946594238,-29.76799964904785 C-9.368000030517578,-32.26900100708008 -6.295000076293945,-33.268001556396484 -4.53000020980835,-31.45800018310547 C-4.53000020980835,-31.45800018310547 8.645999908447266,-17.94099998474121 8.645999908447266,-17.94099998474121 C8.645999908447266,-17.94099998474121 27.249000549316406,-21.131999969482422 27.249000549316406,-21.131999969482422 C29.739999771118164,-21.55900001525879 31.639999389648438,-18.944000244140625 30.464000701904297,-16.707000732421875 C30.464000701904297,-16.707000732421875 21.68000030517578,0 21.68000030517578,0 C21.68000030517578,0 30.464000701904297,16.70800018310547 30.464000701904297,16.70800018310547 C31.639999389648438,18.94499969482422 29.739999771118164,21.559999465942383 27.249000549316406,21.132999420166016 C27.249000549316406,21.132999420166016 8.645999908447266,17.941999435424805 8.645999908447266,17.941999435424805 C8.645999908447266,17.941999435424805 -4.53000020980835,31.458999633789062 -4.53000020980835,31.458999633789062 C-6.295000076293945,33.268001556396484 -9.368000030517578,32.27000045776367 -9.730999946594238,29.768999099731445 C-9.730999946594238,29.768999099731445 -12.446000099182129,11.08899974822998 -12.446000099182129,11.08899974822998 C-12.446000099182129,11.08899974822998 -29.37299919128418,2.734999895095825 -29.37299919128418,2.734999895095825 C-31.639999389648438,1.6169999837875366 -31.639999389648438,-1.6150000095367432 -29.37299919128418,-2.7339999675750732z"></path></g></g><g style="display: block;" transform="matrix(0,0,0,0,70.35800170898438,125.23100280761719)" opacity="1"><g opacity="1" transform="matrix(1,0,0,1,19,19)"><path fill="rgb(0,148,255)" fill-opacity="1" d=" M-18.75,0 C-18.75,10.354999542236328 -10.354999542236328,18.75 0,18.75 C10.354999542236328,18.75 18.75,10.354999542236328 18.75,0 C18.75,-10.354999542236328 10.354999542236328,-18.75 0,-18.75 C-10.354999542236328,-18.75 -18.75,-10.354999542236328 -18.75,0z"></path></g></g><g style="display: block;" transform="matrix(0,0,0,0,276.12298583984375,61.375)" opacity="1"><g opacity="1" transform="matrix(1,0,0,1,19,19)"><path fill="rgb(3,198,90)" fill-opacity="1" d=" M-18.75,0 C-18.75,10.354999542236328 -10.354000091552734,18.75 0,18.75 C10.354999542236328,18.75 18.75,10.354999542236328 18.75,0 C18.75,-10.354999542236328 10.354999542236328,-18.75 0,-18.75 C-10.354000091552734,-18.75 -18.75,-10.354999542236328 -18.75,0z"></path></g></g><g mask="url(#__lottie_element_219)" style="display: block;"><g transform="matrix(1,0,0,1,66.23098754882812,139.18800354003906)" opacity="1"><g opacity="1" transform="matrix(1,0,0,1,153.67100524902344,120.53099822998047)"><path fill="rgb(255,208,55)" fill-opacity="1" d=" M66.73400115966797,-119.7300033569336 C39.542999267578125,-120.28099822998047 15.295999526977539,-107.5790023803711 0,-87.64700317382812 C-15.295999526977539,-107.5790023803711 -39.542999267578125,-120.28099822998047 -66.73400115966797,-119.7300033569336 C-118.7239990234375,-118.6760025024414 -153.4199981689453,-73.66999816894531 -145.8179931640625,-22.226999282836914 C-132.1020050048828,70.58000183105469 0,124.6729965209961 0,124.6729965209961 C0,124.6729965209961 132.1020050048828,70.58000183105469 145.81700134277344,-22.226999282836914 C153.4199981689453,-73.66999816894531 118.7239990234375,-118.6760025024414 66.73400115966797,-119.7300033569336z"></path></g></g></g><g mask="url(#__lottie_element_213)" style="display: block;"><g transform="matrix(1,0,0,1,66.21800231933594,139.18699645996094)" opacity="1"><g opacity="1" transform="matrix(1,0,0,1,76.95999908447266,120.53099822998047)"><path fill="rgb(255,98,95)" fill-opacity="1" d=" M76.70999908447266,-87.64700317382812 C61.41400146484375,-107.5780029296875 37.167999267578125,-120.28099822998047 9.97700023651123,-119.7300033569336 C-42.01499938964844,-118.6760025024414 -76.70999908447266,-73.66899871826172 -69.10800170898438,-22.22599983215332 C-55.393001556396484,70.58100128173828 76.70999908447266,124.6729965209961 76.70999908447266,124.6729965209961 C76.70999908447266,124.6729965209961 76.70999908447266,-87.64700317382812 76.70999908447266,-87.64700317382812z"></path></g></g></g><g mask="url(#__lottie_element_207)" style="display: none;"><g transform="matrix(0.662234902381897,0,0,1,118.12236785888672,139.18699645996094)" opacity="1"><g opacity="1" transform="matrix(1,0,0,1,76.95999908447266,120.53099822998047)"><path fill="rgb(255,133,51)" fill-opacity="1" d=" M76.70999908447266,-87.64700317382812 C61.41400146484375,-107.5780029296875 37.167999267578125,-120.28099822998047 9.97700023651123,-119.7300033569336 C-42.01499938964844,-118.6760025024414 -76.70999908447266,-73.66899871826172 -69.10800170898438,-22.22599983215332 C-55.393001556396484,70.58100128173828 76.70999908447266,124.6729965209961 76.70999908447266,124.6729965209961 C76.70999908447266,124.6729965209961 76.70999908447266,-87.64700317382812 76.70999908447266,-87.64700317382812z"></path></g></g></g><g mask="url(#__lottie_element_201)" style="display: none;"><g transform="matrix(-0.04085094854235649,0,0,0.9995794892311096,226.16561889648438,139.23779296875)" opacity="1"><g opacity="1" transform="matrix(1,0,0,1,76.95999908447266,120.53099822998047)"><path fill="rgb(255,170,59)" fill-opacity="1" d=" M76.70999908447266,-87.64700317382812 C61.41400146484375,-107.5780029296875 37.167999267578125,-120.28099822998047 9.97700023651123,-119.7300033569336 C-42.01499938964844,-118.6760025024414 -76.70999908447266,-73.66899871826172 -69.10800170898438,-22.22599983215332 C-55.393001556396484,70.58100128173828 76.70999908447266,124.6729965209961 76.70999908447266,124.6729965209961 C76.70999908447266,124.6729965209961 76.70999908447266,-87.64700317382812 76.70999908447266,-87.64700317382812z"></path></g></g></g><g mask="url(#__lottie_element_195)" style="display: none;"><g transform="matrix(0.05365601181983948,0,0,0.9642078876495361,211.6466827392578,143.5111541748047)" opacity="1"><g opacity="1" transform="matrix(1,0,0,1,76.95999908447266,120.53099822998047)"><path fill="rgb(255,208,55)" fill-opacity="1" d=" M76.70999908447266,-87.64700317382812 C61.41400146484375,-107.5780029296875 37.167999267578125,-120.28099822998047 9.97700023651123,-119.7300033569336 C-42.01499938964844,-118.6760025024414 -76.70999908447266,-73.66899871826172 -69.10800170898438,-22.22599983215332 C-55.393001556396484,70.58100128173828 76.70999908447266,124.6729965209961 76.70999908447266,124.6729965209961 C76.70999908447266,124.6729965209961 76.70999908447266,-87.64700317382812 76.70999908447266,-87.64700317382812z"></path></g></g></g><g mask="url(#__lottie_element_189)" style="display: none;"><g transform="matrix(-0.0685817301273346,0,0,0.9896419048309326,230.42811584472656,140.43838500976562)" opacity="1"><g opacity="1" transform="matrix(1,0,0,1,76.95999908447266,120.53099822998047)"><path fill="rgb(255,170,59)" fill-opacity="1" d=" M76.70999908447266,-87.64700317382812 C61.41400146484375,-107.5780029296875 37.167999267578125,-120.28099822998047 9.97700023651123,-119.7300033569336 C-42.01499938964844,-118.6760025024414 -76.70999908447266,-73.66899871826172 -69.10800170898438,-22.22599983215332 C-55.393001556396484,70.58100128173828 76.70999908447266,124.6729965209961 76.70999908447266,124.6729965209961 C76.70999908447266,124.6729965209961 76.70999908447266,-87.64700317382812 76.70999908447266,-87.64700317382812z"></path></g></g></g><g mask="url(#__lottie_element_183)" style="display: none;"><g transform="matrix(-0.08275066316127777,0,0,1.1941012144088745,232.58255004882812,115.73704528808594)" opacity="1"><g opacity="1" transform="matrix(1,0,0,1,76.95999908447266,120.53099822998047)"><path fill="rgb(255,97,95)" fill-opacity="1" d=" M76.70999908447266,-87.64700317382812 C61.41400146484375,-107.5780029296875 37.167999267578125,-120.28099822998047 9.97700023651123,-119.7300033569336 C-42.01499938964844,-118.6760025024414 -76.70999908447266,-73.66899871826172 -69.10800170898438,-22.22599983215332 C-55.393001556396484,70.58100128173828 76.70999908447266,124.6729965209961 76.70999908447266,124.6729965209961 C76.70999908447266,124.6729965209961 76.70999908447266,-87.64700317382812 76.70999908447266,-87.64700317382812z"></path></g></g></g><g mask="url(#__lottie_element_177)" style="display: block;"><g transform="matrix(-1,0,0,1,373.5579833984375,139.18699645996094)" opacity="1"><g opacity="1" transform="matrix(1,0,0,1,76.95999908447266,120.53099822998047)"><path fill="rgb(255,97,95)" fill-opacity="1" d=" M76.70999908447266,-87.64700317382812 C61.41400146484375,-107.5780029296875 37.167999267578125,-120.28099822998047 9.97700023651123,-119.7300033569336 C-42.01499938964844,-118.6760025024414 -76.70999908447266,-73.66899871826172 -69.10800170898438,-22.22599983215332 C-55.393001556396484,70.58100128173828 76.70999908447266,124.6729965209961 76.70999908447266,124.6729965209961 C76.70999908447266,124.6729965209961 76.70999908447266,-87.64700317382812 76.70999908447266,-87.64700317382812z"></path></g></g></g><g mask="url(#__lottie_element_171)" style="display: block;"><g transform="matrix(-1,0,0,1,373.5579833984375,139.18699645996094)" opacity="1"><g opacity="1" transform="matrix(1,0,0,1,76.95999908447266,120.53099822998047)"><path fill="rgb(255,170,59)" fill-opacity="1" d=" M76.70999908447266,-87.64700317382812 C61.41400146484375,-107.5780029296875 37.167999267578125,-120.28099822998047 9.97700023651123,-119.7300033569336 C-42.01499938964844,-118.6760025024414 -76.70999908447266,-73.66899871826172 -69.10800170898438,-22.22599983215332 C-55.393001556396484,70.58100128173828 76.70999908447266,124.6729965209961 76.70999908447266,124.6729965209961 C76.70999908447266,124.6729965209961 76.70999908447266,-87.64700317382812 76.70999908447266,-87.64700317382812z"></path></g></g></g><g mask="url(#__lottie_element_165)" style="display: block;"><g transform="matrix(-1,0,0,1,373.5579833984375,139.18699645996094)" opacity="1"><g opacity="1" transform="matrix(1,0,0,1,76.95999908447266,120.53099822998047)"><path fill="rgb(255,208,55)" fill-opacity="1" d=" M76.70999908447266,-87.64700317382812 C61.41400146484375,-107.5780029296875 37.167999267578125,-120.28099822998047 9.97700023651123,-119.7300033569336 C-42.01499938964844,-118.6760025024414 -76.70999908447266,-73.66899871826172 -69.10800170898438,-22.22599983215332 C-55.393001556396484,70.58100128173828 76.70999908447266,124.6729965209961 76.70999908447266,124.6729965209961 C76.70999908447266,124.6729965209961 76.70999908447266,-87.64700317382812 76.70999908447266,-87.64700317382812z"></path></g></g></g><g mask="url(#__lottie_element_159)" style="display: none;"><g transform="matrix(-0.00997104775160551,0,0,1,221.42025756835938,139.18699645996094)" opacity="1"><g opacity="1" transform="matrix(1,0,0,1,76.95999908447266,120.53099822998047)"><path fill="rgb(255,208,55)" fill-opacity="1" d=" M76.70999908447266,-87.64700317382812 C61.41400146484375,-107.5780029296875 37.167999267578125,-120.28099822998047 9.97700023651123,-119.7300033569336 C-42.01499938964844,-118.6760025024414 -76.70999908447266,-73.66899871826172 -69.10800170898438,-22.22599983215332 C-55.393001556396484,70.58100128173828 76.70999908447266,124.6729965209961 76.70999908447266,124.6729965209961 C76.70999908447266,124.6729965209961 76.70999908447266,-87.64700317382812 76.70999908447266,-87.64700317382812z"></path></g></g></g><g mask="url(#__lottie_element_153)" style="display: none;"><g transform="matrix(-0.00878708902746439,0,0,1,221.23831176757812,139.18699645996094)" opacity="1"><g opacity="1" transform="matrix(1,0,0,1,76.95999908447266,120.53099822998047)"><path fill="rgb(255,97,95)" fill-opacity="1" d=" M76.70999908447266,-87.64700317382812 C61.41400146484375,-107.5780029296875 37.167999267578125,-120.28099822998047 9.97700023651123,-119.7300033569336 C-42.01499938964844,-118.6760025024414 -76.70999908447266,-73.66899871826172 -69.10800170898438,-22.22599983215332 C-55.393001556396484,70.58100128173828 76.70999908447266,124.6729965209961 76.70999908447266,124.6729965209961 C76.70999908447266,124.6729965209961 76.70999908447266,-87.64700317382812 76.70999908447266,-87.64700317382812z"></path></g></g></g><g mask="url(#__lottie_element_147)" style="display: block;"><g transform="matrix(-1,0,0,1,373.5579833984375,139.18699645996094)" opacity="1"><g opacity="1" transform="matrix(1,0,0,1,76.95999908447266,120.53099822998047)"><path fill="rgb(255,170,59)" fill-opacity="1" d=" M76.70999908447266,-87.64700317382812 C61.41400146484375,-107.5780029296875 37.167999267578125,-120.28099822998047 9.97700023651123,-119.7300033569336 C-42.01499938964844,-118.6760025024414 -76.70999908447266,-73.66899871826172 -69.10800170898438,-22.22599983215332 C-55.393001556396484,70.58100128173828 76.70999908447266,124.6729965209961 76.70999908447266,124.6729965209961 C76.70999908447266,124.6729965209961 76.70999908447266,-87.64700317382812 76.70999908447266,-87.64700317382812z"></path></g></g></g><g mask="url(#__lottie_element_141)" style="display: block;"><g transform="matrix(-1,0,0,1,373.5579833984375,139.18699645996094)" opacity="1"><g opacity="1" transform="matrix(1,0,0,1,76.95999908447266,120.53099822998047)"><path fill="rgb(255,133,51)" fill-opacity="1" d=" M76.70999908447266,-87.64700317382812 C61.41400146484375,-107.5780029296875 37.167999267578125,-120.28099822998047 9.97700023651123,-119.7300033569336 C-42.01499938964844,-118.6760025024414 -76.70999908447266,-73.66899871826172 -69.10800170898438,-22.22599983215332 C-55.393001556396484,70.58100128173828 76.70999908447266,124.6729965209961 76.70999908447266,124.6729965209961 C76.70999908447266,124.6729965209961 76.70999908447266,-87.64700317382812 76.70999908447266,-87.64700317382812z"></path></g></g></g><g mask="url(#__lottie_element_135)" style="display: block;"><g transform="matrix(-1,0,0,1,373.5579833984375,139.18699645996094)" opacity="1"><g opacity="1" transform="matrix(1,0,0,1,76.95999908447266,120.53099822998047)"><path fill="rgb(255,97,95)" fill-opacity="1" d=" M76.70999908447266,-87.64700317382812 C61.41400146484375,-107.5780029296875 37.167999267578125,-120.28099822998047 9.97700023651123,-119.7300033569336 C-42.01499938964844,-118.6760025024414 -76.70999908447266,-73.66899871826172 -69.10800170898438,-22.22599983215332 C-55.393001556396484,70.58100128173828 76.70999908447266,124.6729965209961 76.70999908447266,124.6729965209961 C76.70999908447266,124.6729965209961 76.70999908447266,-87.64700317382812 76.70999908447266,-87.64700317382812z"></path></g></g></g><g mask="url(#__lottie_element_129)" style="display: block;"><g transform="matrix(-0.9921937584877014,0,0,1,372.3583984375,139.18699645996094)" opacity="1"><g opacity="1" transform="matrix(1,0,0,1,76.95999908447266,120.53099822998047)"><path fill="rgb(255,208,55)" fill-opacity="1" d=" M76.70999908447266,-87.64700317382812 C61.41400146484375,-107.5780029296875 37.167999267578125,-120.28099822998047 9.97700023651123,-119.7300033569336 C-42.01499938964844,-118.6760025024414 -76.70999908447266,-73.66899871826172 -69.10800170898438,-22.22599983215332 C-55.393001556396484,70.58100128173828 76.70999908447266,124.6729965209961 76.70999908447266,124.6729965209961 C76.70999908447266,124.6729965209961 76.70999908447266,-87.64700317382812 76.70999908447266,-87.64700317382812z"></path></g></g></g></g></svg>