<svg width="108" height="52" viewBox="0 0 108 52" fill="none" xmlns="http://www.w3.org/2000/svg">
<path d="M53.9655 2.57093C38.9685 2.57093 24.5045 1.69764 10.8925 0.0772167C3.97448 -0.746199 -1.67952 5.10282 0.458478 13.4661C5.86948 34.6305 31.1385 51.9838 53.9655 51.9838C76.7945 51.9838 99.3375 36.1433 106.643 13.8142C109.494 5.10282 103.958 -0.746199 97.0405 0.0772167C83.4275 1.69764 68.9635 2.57093 53.9655 2.57093Z" fill="#AA4682"/>
<mask id="mask0_2493_1506" style="mask-type:alpha" maskUnits="userSpaceOnUse" x="0" y="0" width="108" height="52">
<path d="M53.9655 2.57093C38.9685 2.57093 24.5045 1.69764 10.8925 0.0772167C3.97448 -0.746199 -1.67952 5.10282 0.458478 13.4661C5.86948 34.6305 31.1385 51.9838 53.9655 51.9838C76.7945 51.9838 99.3375 36.1433 106.643 13.8142C109.494 5.10282 103.958 -0.746199 97.0405 0.0772167C83.4275 1.69764 68.9635 2.57093 53.9655 2.57093Z" fill="#AA4682"/>
</mask>
<g mask="url(#mask0_2493_1506)">
<path d="M94.3426 47.4553C88.9046 40.2293 71.5096 27.6333 54.4826 27.6333C37.5156 27.6333 20.3136 41.0173 14.8296 48.2033C16.3016 62.2333 30.3726 78.3213 54.4806 77.1993C71.9526 76.3863 94.8336 63.1693 94.3426 47.4553Z" fill="#FFABB7"/>
</g>
</svg>
